if (_typeface_js && _typeface_js.loadFace) _typeface_js.loadFace({"glyphs":{"S":{"x_min":27.296875,"x_max":742.125,"ha":846,"o":"m 253 1237 q 235 1231 244 1230 q 152 1172 197 1187 q 122 1142 139 1152 q 87 1077 105 1104 q 51 1024 69 1044 q 295 573 20 689 l 301 560 l 318 555 l 324 543 l 342 537 q 401 489 379 512 l 442 478 q 520 371 499 425 q 431 228 512 268 l 437 139 q 442 -8 430 50 q 579 33 522 -3 q 739 394 760 180 q 722 448 723 421 l 710 472 l 656 579 l 644 584 q 573 650 607 629 l 550 674 q 466 733 497 698 q 271 864 347 779 q 277 935 270 908 q 312 982 295 963 q 324 1030 316 1009 l 318 1047 l 324 1059 q 330 1125 322 1095 q 324 1220 321 1180 q 253 1237 286 1237 m 395 1214 q 401 1166 404 1191 l 401 1030 l 425 994 q 472 946 458 974 q 478 881 472 910 l 496 869 l 514 869 l 537 875 l 561 875 q 579 881 571 882 l 597 881 q 698 893 658 893 q 698 994 714 947 q 401 1231 617 1214 l 395 1214 m 182 389 q 27 299 18 391 q 282 -8 87 69 l 301 -8 l 342 -20 q 342 193 358 109 q 229 389 244 252 l 182 389 "},"¦":{"x_min":0,"x_max":0,"ha":136},"/":{"x_min":-10.859375,"x_max":693.828125,"ha":679,"o":"m -10 170 l -10 1222 l 331 1222 l -10 170 m 693 235 l 616 -1 l 274 -1 l 670 1222 l 693 1222 l 693 235 "},"y":{"x_min":16.28125,"x_max":691.375,"ha":818,"o":"m 16 1201 l 21 1190 l 21 1173 l 50 1081 q 79 988 72 1027 l 90 965 l 90 937 q 125 838 115 883 q 131 815 125 824 l 137 792 l 143 763 l 154 735 l 154 717 q 177 654 177 684 l 183 631 l 194 585 l 206 573 l 212 562 q 246 440 223 489 l 246 377 q 246 285 246 323 l 246 256 q 240 164 247 203 l 246 153 q 235 20 231 72 l 269 -2 l 448 -2 l 442 8 q 459 94 470 50 l 454 118 l 459 216 l 454 239 q 459 285 459 266 q 465 430 455 373 q 448 458 453 444 l 442 493 l 431 533 q 413 591 415 566 q 402 631 403 611 q 379 689 381 663 l 367 735 q 362 746 360 740 l 362 763 q 344 822 347 795 q 321 902 324 870 l 309 919 l 304 954 q 286 1017 289 990 q 281 1034 280 1026 l 275 1052 l 258 1098 l 258 1115 q 229 1224 233 1180 q 206 1230 215 1226 q 194 1224 200 1224 l 148 1224 l 137 1230 q 33 1230 76 1224 l 16 1201 m 489 1207 l 477 1161 l 465 1138 l 459 1115 l 436 1075 q 385 931 420 986 l 390 891 l 396 868 l 402 850 l 413 838 l 413 822 l 431 781 l 442 735 q 448 717 448 726 l 454 706 q 471 619 455 657 q 512 648 497 631 l 517 683 l 546 758 q 563 775 553 770 l 558 798 l 592 891 l 598 908 l 604 931 l 627 994 l 632 1017 l 638 1034 q 650 1046 644 1044 q 685 1150 661 1111 q 690 1219 693 1190 l 673 1224 l 655 1224 l 638 1224 q 505 1224 560 1214 l 489 1207 "},"≈":{"x_min":0,"x_max":0,"ha":431},"Ž":{"x_min":0,"x_max":0,"ha":468},"Á":{"x_min":0,"x_max":0,"ha":413},"g":{"x_min":65.78125,"x_max":727.0625,"ha":806,"o":"m 280 1237 q 83 1046 149 1162 l 83 1017 l 71 988 q 65 918 84 949 q 77 884 75 900 l 77 855 q 77 820 71 834 q 83 773 75 792 q 83 680 73 720 l 71 669 q 83 657 82 663 q 83 524 71 581 q 361 -8 19 57 q 384 31 370 14 l 384 49 q 373 200 363 130 q 309 252 339 235 l 309 286 l 303 322 l 303 350 l 303 385 l 303 414 l 297 443 l 297 466 l 297 484 l 297 600 q 303 698 295 661 q 292 773 293 744 l 292 796 l 292 901 q 286 976 294 946 q 309 1028 301 1004 q 367 1098 360 1051 l 367 1116 l 367 1133 q 361 1144 360 1139 l 361 1191 l 356 1231 l 280 1237 m 483 1237 q 465 1231 474 1230 l 460 1220 l 460 1174 q 460 1051 453 1100 q 518 1000 497 1027 q 524 843 512 908 l 564 837 l 611 849 q 704 884 653 879 q 692 1000 706 950 q 483 1237 660 1193 m 599 605 q 500 600 546 593 l 448 594 l 448 420 l 460 385 l 518 385 q 460 211 545 249 l 448 170 l 448 20 q 616 43 491 -28 q 720 -8 654 -29 l 720 67 l 720 90 l 720 165 l 720 188 l 720 211 l 720 229 q 727 309 718 276 q 720 408 715 367 l 715 425 l 720 438 l 715 455 l 720 466 l 720 484 l 715 495 q 704 600 716 556 q 599 605 639 598 "},"²":{"x_min":0,"x_max":0,"ha":203},"–":{"x_min":0,"x_max":0,"ha":464},"ë":{"x_min":0,"x_max":0,"ha":330},"ƒ":{"x_min":0,"x_max":0,"ha":391},"Î":{"x_min":0,"x_max":0,"ha":159},"e":{"x_min":13.359375,"x_max":644.3125,"ha":775,"o":"m 48 1244 q 13 1209 28 1219 q 19 1081 25 1130 l 19 999 q 13 893 13 931 l 13 100 q 19 6 12 46 l 54 0 l 78 12 l 101 12 l 165 0 l 223 0 l 416 0 l 434 -4 l 474 -4 l 492 -4 l 510 -4 q 603 -10 564 -2 q 615 0 609 0 l 621 18 l 621 47 l 626 65 l 626 82 l 626 199 l 632 217 q 579 240 606 236 l 550 234 l 474 234 l 457 234 l 393 234 l 369 234 l 352 240 l 335 240 l 217 234 l 229 280 l 229 298 l 235 339 l 235 444 l 235 549 l 252 537 l 270 537 l 288 537 l 305 537 q 364 537 339 535 l 381 532 q 451 537 421 543 l 474 561 l 480 573 l 480 619 l 480 736 l 463 754 l 422 754 l 404 754 l 387 754 q 246 742 308 759 l 217 754 l 217 777 l 229 794 l 229 818 q 235 888 235 862 l 235 906 l 235 923 q 241 1040 232 992 l 264 1040 q 322 1028 297 1039 q 404 1034 369 1026 q 474 1034 448 1031 q 626 1034 568 1022 l 644 1063 l 638 1087 l 644 1127 q 644 1203 626 1169 q 632 1233 634 1218 l 597 1233 q 498 1238 537 1229 l 469 1233 l 445 1233 q 364 1233 398 1238 l 346 1233 l 305 1238 l 293 1233 q 223 1238 252 1241 l 206 1238 l 188 1244 l 141 1244 l 124 1244 l 48 1244 "},"Ã":{"x_min":0,"x_max":0,"ha":413},"J":{"x_min":98.6875,"x_max":708.75,"ha":765,"o":"m 541 1230 q 490 1196 507 1218 q 496 1150 491 1166 l 490 1104 l 490 1024 l 496 989 l 490 949 q 490 868 494 904 l 496 794 q 490 748 496 764 l 496 719 l 490 691 l 496 656 l 490 628 q 490 587 494 606 q 490 501 499 543 q 490 421 493 455 q 478 265 499 331 l 490 248 q 438 174 454 217 l 450 156 l 444 128 q 450 110 450 119 q 455 7 447 48 q 691 162 619 20 l 703 208 l 703 225 l 703 242 l 703 260 l 703 323 l 703 380 l 703 403 l 703 421 l 708 461 l 703 472 l 703 489 l 703 564 l 703 587 l 703 604 l 703 621 l 703 639 l 703 661 l 703 679 l 703 719 l 703 737 l 703 754 q 697 846 706 807 l 697 874 l 697 891 l 697 914 q 697 978 699 958 l 697 995 q 691 1219 704 1133 l 674 1225 q 541 1230 602 1211 m 260 484 q 122 438 188 444 q 358 -4 19 73 l 352 7 q 364 128 377 67 l 364 196 l 323 219 l 318 242 l 312 265 l 312 282 l 318 305 l 312 323 l 318 346 l 312 363 l 312 426 l 312 484 l 260 484 "},"»":{"x_min":0,"x_max":0,"ha":366},"∆":{"x_min":0,"x_max":0,"ha":248},"‐":{"x_min":39.421875,"x_max":258.40625,"ha":361,"o":"m 44 717 l 49 694 q 44 550 32 611 l 61 550 l 101 543 l 119 543 l 136 543 l 153 543 l 229 543 l 258 550 l 258 567 l 258 613 l 246 729 l 229 735 l 183 729 l 165 729 l 49 735 l 44 717 "},"©":{"x_min":0,"x_max":0,"ha":484},"˘":{"x_min":0,"x_max":0,"ha":244},"≥":{"x_min":0,"x_max":0,"ha":232},"ò":{"x_min":0,"x_max":0,"ha":248},"^":{"x_min":0,"x_max":0,"ha":224},"«":{"x_min":0,"x_max":0,"ha":366},"D":{"x_min":12.203125,"x_max":643.015625,"ha":762,"o":"m 29 1237 l 12 1197 q 23 1156 21 1174 l 23 729 q 23 601 21 652 l 23 566 l 23 484 q 23 408 21 440 q 18 309 13 350 l 18 286 q 12 204 22 241 l 12 187 q 12 29 21 94 l 23 6 q 233 23 139 -12 l 239 41 l 239 59 q 239 151 233 112 l 239 175 l 239 239 l 239 257 q 239 408 229 347 l 239 438 l 233 473 l 227 502 l 239 525 q 239 572 232 553 q 233 695 225 640 l 233 718 l 233 747 l 239 771 q 239 928 223 861 q 239 975 232 956 l 233 1015 q 245 1197 229 1123 q 41 1226 140 1250 l 29 1237 m 327 1202 q 333 1068 341 1126 q 339 1015 341 1037 q 415 986 387 1014 l 420 946 l 420 747 q 415 653 423 693 l 420 613 l 408 590 q 420 525 421 557 l 415 502 l 420 478 l 420 455 q 408 303 426 366 l 420 268 q 339 216 391 219 l 321 169 l 327 151 l 333 128 q 339 -5 325 48 q 636 601 675 19 q 350 1237 687 1169 l 327 1202 "},"∙":{"x_min":0,"x_max":0,"ha":140},"ł":{"x_min":0,"x_max":0,"ha":144},"ÿ":{"x_min":0,"x_max":0,"ha":267},"Ł":{"x_min":0,"x_max":0,"ha":387},"í":{"x_min":0,"x_max":0,"ha":159},"ˆ":{"x_min":0,"x_max":0,"ha":244},"w":{"x_min":18.3125,"x_max":931.078125,"ha":1049,"o":"m 488 1237 q 476 1226 482 1227 l 476 1203 l 465 1185 l 459 1162 l 447 1115 l 436 1098 l 436 1069 q 401 953 406 1007 l 413 906 q 424 866 421 885 q 447 767 446 812 q 476 645 476 701 q 488 611 486 628 l 499 570 l 505 535 l 517 506 l 522 472 q 529 442 529 455 l 540 419 l 545 390 q 569 291 567 333 l 592 198 l 598 187 l 609 134 l 644 2 l 714 2 l 725 25 l 725 59 l 731 82 l 737 106 l 743 123 l 743 141 l 749 164 l 749 181 l 754 198 l 754 216 l 760 257 q 777 384 777 335 l 743 483 l 737 524 q 725 552 727 538 l 714 599 q 697 634 701 617 l 685 680 q 668 750 669 722 q 656 779 657 765 q 638 860 640 827 q 633 872 632 866 l 633 889 q 615 924 619 906 l 609 947 q 592 1011 604 986 q 581 1069 591 1045 l 563 1127 l 563 1144 l 545 1220 q 488 1237 515 1236 m 720 1214 q 720 1150 725 1182 q 708 1074 708 1106 q 691 982 689 1031 q 702 965 699 975 l 720 947 l 720 924 l 731 901 l 737 872 l 743 854 q 754 802 753 826 q 790 663 796 734 l 813 628 l 847 640 l 847 663 l 847 692 q 865 756 860 725 l 859 767 q 876 860 879 817 q 894 970 894 925 l 906 1017 l 906 1034 q 929 1237 937 1152 l 911 1237 l 731 1237 l 720 1214 m 18 1191 l 52 1058 l 52 1040 l 76 930 l 82 889 l 93 854 l 99 831 l 111 779 l 111 761 l 122 721 l 128 663 q 145 581 143 635 q 151 552 151 566 l 163 529 l 163 500 q 180 419 180 454 l 192 396 l 192 367 q 204 303 202 333 l 209 280 q 232 181 228 222 l 232 164 q 244 106 246 134 q 256 54 260 80 q 284 -4 267 17 q 349 2 320 4 l 349 30 l 354 59 l 360 88 l 366 118 l 377 193 l 383 216 l 389 239 q 395 286 389 269 l 401 297 q 418 402 405 361 l 418 448 q 401 512 404 484 q 389 576 391 545 l 360 669 l 360 692 l 354 709 q 349 727 349 718 l 349 744 l 343 785 q 325 843 328 817 l 320 866 l 320 883 q 308 959 308 927 l 297 982 l 297 999 q 290 1017 290 1008 l 290 1034 l 279 1051 q 238 1226 271 1155 l 221 1226 l 204 1226 l 24 1226 l 18 1191 "},"$":{"x_min":0,"x_max":0,"ha":431},"∫":{"x_min":0,"x_max":0,"ha":948},"\\":{"x_min":-10.859375,"x_max":693.828125,"ha":679,"o":"m 351 1222 l 693 1222 l 693 170 l 351 1222 m -10 1222 l 12 1222 l 409 -1 l 67 -1 l -10 235 l -10 1222 "},"Ì":{"x_min":0,"x_max":0,"ha":159},"µ":{"x_min":0,"x_max":0,"ha":285},"Ç":{"x_min":0,"x_max":0,"ha":494},"’":{"x_min":0,"x_max":0,"ha":163},"-":{"x_min":39.421875,"x_max":258.40625,"ha":361,"o":"m 44 717 l 49 694 q 44 550 32 611 l 61 550 l 101 543 l 119 543 l 136 543 l 153 543 l 229 543 l 258 550 l 258 567 l 258 613 l 246 729 l 229 735 l 183 729 l 165 729 l 49 735 l 44 717 "},"Q":{"x_min":45.859375,"x_max":757.09375,"ha":840,"o":"m 438 1237 q 433 1171 431 1199 l 433 997 l 486 950 l 486 919 q 493 788 499 840 l 486 758 l 486 716 l 493 686 l 486 661 l 486 632 l 493 608 l 493 590 l 486 572 l 493 554 q 499 338 491 389 q 451 194 501 244 l 451 152 q 444 20 453 73 q 463 -15 458 2 q 529 -39 503 -21 q 583 -159 541 -114 l 607 -159 q 678 -87 636 -107 q 727 -33 698 -51 l 727 2 q 678 92 692 50 l 685 110 q 733 182 719 151 l 733 200 l 733 218 l 744 248 q 750 350 743 311 q 756 482 737 425 q 744 494 752 492 q 756 505 750 503 l 750 524 q 756 572 752 554 q 750 691 758 642 l 750 739 q 744 788 750 769 l 750 830 l 744 847 q 738 919 744 893 q 720 1022 733 982 q 702 1081 707 1058 q 630 1165 653 1129 l 607 1165 l 600 1178 l 558 1201 l 547 1207 l 529 1207 l 510 1214 q 438 1237 470 1233 m 301 1225 q 96 1051 168 1159 l 90 1028 l 61 908 l 54 883 l 54 554 q 277 -15 0 156 l 355 -21 l 366 38 q 360 164 341 105 q 355 182 355 173 q 301 236 319 206 q 295 350 303 303 l 301 374 l 295 398 l 295 422 l 295 500 q 295 590 301 555 l 301 619 l 301 644 l 301 661 l 301 686 l 301 710 l 301 733 l 301 758 l 301 859 l 301 878 l 301 950 q 349 1028 337 987 l 355 1045 q 355 1219 332 1143 l 301 1225 "},"M":{"x_min":0.671875,"x_max":790.8125,"ha":920,"o":"m 591 1216 l 590 1198 q 588 1123 587 1153 l 581 845 q 585 763 590 799 l 584 479 q 588 409 583 438 q 592 322 579 363 q 589 201 577 255 l 583 189 q 601 14 582 79 q 781 22 704 1 l 783 86 l 784 109 q 784 126 780 118 l 784 143 l 785 161 q 786 179 781 170 l 786 196 l 781 242 q 789 311 788 285 l 777 335 l 790 370 l 785 404 q 781 451 786 434 q 782 515 788 489 l 788 538 l 783 550 l 785 613 q 780 672 779 647 l 781 701 l 782 747 l 783 770 l 777 805 l 784 828 q 785 857 781 843 q 786 880 781 871 q 787 944 779 914 q 782 973 781 960 l 777 985 l 777 1002 l 779 1072 l 779 1089 l 779 1106 q 777 1222 784 1175 l 765 1228 q 615 1238 677 1219 l 591 1216 m 22 1212 l 18 1079 l 35 1049 l 52 1009 l 56 968 l 68 956 l 67 939 q 105 828 99 877 q 116 798 114 811 l 127 769 q 153 676 150 716 l 170 652 l 170 634 q 191 564 187 594 q 229 442 225 502 l 246 424 l 267 330 l 278 307 l 283 284 l 295 266 l 299 237 l 304 202 q 309 185 311 193 l 321 172 l 320 149 l 332 132 l 342 91 q 358 9 344 44 q 416 19 392 12 l 428 60 q 430 94 425 79 l 436 118 l 448 146 l 448 169 l 461 192 l 461 210 l 461 227 l 474 233 l 499 337 l 495 377 q 503 504 493 454 l 498 528 l 504 545 q 500 609 495 579 l 502 690 l 503 708 l 503 731 l 498 748 l 504 765 l 499 777 q 507 864 510 823 q 461 876 484 876 l 454 853 l 442 843 l 436 808 l 423 762 l 392 676 l 363 688 l 358 722 q 342 787 341 756 q 309 881 314 837 l 305 915 q 294 945 295 931 l 283 968 l 262 1067 l 251 1079 l 251 1102 q 214 1225 222 1171 l 173 1226 l 155 1226 q 109 1222 127 1226 q 46 1229 75 1232 l 22 1212 m 20 673 l 8 644 l 13 615 l 12 575 q 4 465 0 510 l 2 383 l 6 354 l 11 302 l 10 256 l 4 238 l 2 174 q 0 111 6 141 q 4 18 11 57 q 14 -10 12 2 l 32 -16 l 44 -11 l 61 -17 l 78 -12 l 143 -14 q 200 -9 176 -8 l 206 7 l 213 30 l 213 48 l 203 88 l 206 204 q 179 275 193 248 l 173 304 l 162 327 l 158 356 q 142 426 140 391 l 130 438 q 104 532 125 493 l 104 549 q 66 649 78 606 l 26 673 l 20 673 l 26 673 l 20 673 "},"C":{"x_min":12.203125,"x_max":656.421875,"ha":786,"o":"m 406 1237 q 395 1220 404 1224 l 395 1011 q 465 947 442 985 l 465 912 q 470 808 460 853 l 493 802 l 505 808 q 592 843 552 836 q 644 866 617 864 q 638 999 659 937 q 406 1237 588 1197 m 273 1231 q 261 1220 267 1221 l 244 1214 l 215 1191 l 198 1191 l 180 1185 q 110 1150 143 1161 l 105 1133 l 75 1104 l 70 1092 q 29 1011 50 1040 l 23 971 l 18 935 l 18 790 l 12 762 l 18 738 q 18 674 12 704 l 18 541 q 18 460 14 493 l 12 448 q 18 367 12 402 l 18 303 q 41 152 16 217 q 250 -9 130 33 l 302 2 l 307 13 q 307 118 296 71 q 250 233 299 193 l 238 333 q 238 425 244 387 l 244 442 l 238 465 l 244 483 l 244 529 l 244 646 q 250 721 241 689 q 250 779 241 753 l 244 796 l 244 819 l 250 837 q 244 965 238 915 q 314 1028 264 1015 l 314 1051 l 314 1069 q 307 1150 314 1115 q 314 1226 315 1194 l 273 1231 m 465 408 q 470 280 473 329 q 389 204 442 222 l 395 193 l 383 176 q 389 129 385 147 l 389 106 q 383 8 382 45 q 638 217 585 -10 q 650 385 666 305 l 633 396 l 592 413 l 488 448 l 465 408 "},"œ":{"x_min":0,"x_max":0,"ha":513},"!":{"x_min":0,"x_max":0,"ha":169},"ç":{"x_min":0,"x_max":0,"ha":346},"È":{"x_min":0,"x_max":0,"ha":439},"{":{"x_min":0,"x_max":0,"ha":285},"X":{"x_min":18.3125,"x_max":720.953125,"ha":847,"o":"m 676 1228 l 497 1235 q 465 1167 481 1193 q 415 1054 451 1099 l 414 1037 l 425 1019 l 440 961 q 455 908 455 933 q 470 861 467 880 q 516 744 509 800 l 534 737 l 552 765 l 559 788 l 566 811 l 573 833 l 585 856 l 624 952 l 631 975 l 637 992 l 644 1003 q 720 1180 683 1116 q 694 1239 720 1220 l 676 1228 m 232 1235 q 174 1226 198 1225 q 52 1220 104 1242 l 50 1186 q 82 1115 78 1151 q 103 1068 99 1089 l 108 1050 q 145 956 133 995 l 160 915 l 170 874 l 186 838 l 196 792 q 221 727 212 758 l 231 687 l 236 663 l 247 651 l 288 522 l 298 493 l 308 463 l 313 440 l 323 417 l 339 381 l 364 305 l 369 276 q 405 170 402 224 q 416 158 415 164 l 415 141 l 426 123 q 473 6 446 52 l 502 4 l 519 4 l 560 2 l 583 1 l 623 0 q 687 -3 656 2 l 693 19 l 688 37 q 653 148 655 97 q 621 225 623 184 l 605 254 q 579 324 591 299 l 580 347 q 543 430 549 388 l 527 459 l 528 477 q 497 559 500 522 l 486 589 l 476 618 q 472 636 471 627 l 466 647 l 461 665 q 446 723 450 699 q 415 805 424 772 l 411 841 q 387 940 385 892 q 375 952 375 943 q 340 1063 342 1014 q 294 1193 298 1127 q 232 1235 262 1227 m 187 474 q 174 440 175 458 q 147 355 153 392 l 135 338 l 128 309 l 122 293 l 109 276 l 102 241 l 90 219 l 83 208 q 19 71 53 121 l 18 25 l 51 6 l 150 14 q 236 10 196 4 q 269 107 263 59 q 267 315 335 221 l 258 373 q 223 491 232 442 l 200 497 l 187 474 "},"ô":{"x_min":0,"x_max":0,"ha":248},"¼":{"x_min":0,"x_max":0,"ha":533},"#":{"x_min":0,"x_max":0,"ha":431},"Ê":{"x_min":0,"x_max":0,"ha":439},")":{"x_min":0,"x_max":0,"ha":260},"Å":{"x_min":0,"x_max":0,"ha":413},"Δ":{"x_min":0,"x_max":0,"ha":248},"ø":{"x_min":0,"x_max":0,"ha":248},"â":{"x_min":0,"x_max":0,"ha":250},"}":{"x_min":0,"x_max":0,"ha":244},"‰":{"x_min":0,"x_max":0,"ha":494},"Ä":{"x_min":0,"x_max":0,"ha":413},"⋲":{"x_min":0,"x_max":0,"ha":431},"¸":{"x_min":0,"x_max":0,"ha":218},"a":{"x_min":12.859375,"x_max":705.359375,"ha":834,"o":"m 292 1258 q 251 1235 276 1232 l 245 1199 l 257 1165 l 257 1129 l 269 1095 l 274 1054 q 286 1019 289 1037 q 297 973 291 988 l 303 944 l 309 903 l 321 874 l 326 862 q 339 775 326 808 l 344 746 l 350 722 q 367 659 355 682 q 373 600 367 625 q 379 524 382 556 q 385 513 386 519 l 391 501 q 414 408 401 446 l 367 391 q 339 251 370 310 l 344 210 q 356 199 354 205 q 449 193 410 204 q 490 7 459 78 l 518 7 l 536 2 q 583 7 558 9 l 600 7 l 705 2 l 705 42 l 682 135 l 676 147 l 670 240 l 653 263 l 653 286 l 641 333 q 635 345 634 339 l 635 362 q 617 455 621 416 q 594 554 600 513 l 588 594 q 571 699 570 651 q 542 810 539 758 q 531 891 527 857 q 524 908 524 900 q 513 921 520 918 l 513 949 l 507 973 l 501 1019 q 495 1037 495 1028 l 490 1060 l 490 1089 q 472 1211 472 1163 q 443 1240 453 1224 q 292 1258 355 1216 m 170 815 l 170 792 l 158 746 l 134 623 q 118 524 117 565 l 105 501 l 105 472 l 88 391 l 77 350 l 71 316 l 59 234 q 30 106 33 159 q 12 18 12 61 l 24 2 l 42 2 l 59 2 l 134 -4 q 228 13 187 14 l 233 36 l 240 48 q 251 153 238 111 l 251 176 l 257 187 l 263 240 l 263 257 l 269 275 l 269 321 q 286 408 289 367 l 280 432 l 280 449 q 274 467 274 458 l 263 583 l 257 606 l 257 630 l 251 641 l 251 664 q 240 740 236 706 q 228 833 227 792 l 187 845 l 170 815 "},"—":{"x_min":0,"x_max":0,"ha":606},"=":{"x_min":0,"x_max":0,"ha":431},"N":{"x_min":3.75,"x_max":633.453125,"ha":788,"o":"m 250 14 l 257 60 l 263 71 q 263 302 234 201 q 252 330 253 316 l 240 354 l 235 383 l 212 411 l 212 434 l 195 452 l 189 463 l 160 533 l 137 573 l 132 596 q 63 752 78 671 q 35 798 43 775 l 12 804 l 12 786 q 5 677 0 723 q 11 596 2 631 l 5 573 q 5 539 9 556 q 10 470 13 500 q 10 389 17 423 q 10 314 18 345 q 15 250 18 280 l 15 233 l 15 210 l 15 113 l 14 95 l 14 26 q 135 -2 69 -12 l 250 14 m 613 12 q 625 24 619 23 l 626 93 l 631 110 l 626 122 l 626 266 q 615 306 617 288 l 592 341 q 575 387 576 368 q 540 456 548 420 q 489 554 505 512 l 472 589 l 460 623 l 443 658 l 432 681 l 415 716 l 397 750 l 386 779 l 375 814 q 358 849 363 832 l 346 866 l 346 883 q 311 946 320 916 l 300 975 q 295 992 295 984 l 283 1010 q 260 1068 267 1043 q 255 1085 255 1077 q 248 1097 247 1091 q 191 1212 206 1167 l 174 1218 l 151 1218 l 111 1207 q 7 1207 50 1221 l 7 1167 q 7 1103 11 1132 l 18 1045 q 58 965 51 1004 l 64 953 l 75 942 q 109 884 92 908 l 109 867 q 155 780 147 824 l 172 751 l 190 722 l 207 693 l 207 676 q 252 590 240 634 q 259 578 260 584 q 270 543 267 561 q 310 469 303 509 l 327 451 l 339 428 l 339 411 q 379 330 370 369 l 390 313 l 396 295 q 436 209 425 250 l 447 198 l 453 174 q 510 42 497 101 q 613 12 562 4 m 633 577 l 628 652 l 622 727 l 622 750 l 622 801 l 622 819 q 617 865 615 839 q 617 923 619 898 l 617 1020 l 611 1038 q 607 1211 625 1140 q 595 1222 596 1216 l 577 1222 q 445 1217 498 1212 l 411 1211 q 411 1154 407 1178 q 404 1056 400 1096 l 404 1009 q 410 969 410 990 l 427 952 l 432 929 l 450 912 l 455 883 l 461 859 q 472 843 470 853 l 484 825 q 507 767 499 792 l 518 756 l 524 739 l 535 727 l 558 669 l 581 617 l 581 566 l 627 548 l 633 577 "},"˚":{"x_min":0,"x_max":0,"ha":244},"ú":{"x_min":0,"x_max":0,"ha":232},"⁄":{"x_min":0,"x_max":0,"ha":159},"2":{"x_min":37.03125,"x_max":694.84375,"ha":804,"o":"m 312 1237 q 49 963 78 1180 l 54 945 l 72 940 l 89 940 l 101 928 l 118 922 l 135 916 l 146 911 l 164 905 l 238 876 q 267 916 248 900 q 347 1025 275 996 l 353 1043 l 353 1060 l 353 1077 q 347 1123 344 1098 l 347 1140 l 347 1214 l 312 1237 m 433 1220 q 490 951 389 1061 q 484 807 500 869 l 473 796 q 444 727 457 752 l 421 693 q 290 607 356 629 q 221 556 259 567 l 221 538 l 181 504 q 152 476 168 486 q 72 366 120 406 q 72 298 71 325 l 94 286 l 112 286 l 124 292 l 158 292 l 181 292 q 198 292 189 289 q 278 280 245 279 l 307 349 l 398 441 l 415 453 l 433 470 l 450 486 l 461 498 l 478 516 q 524 550 505 538 l 536 567 l 548 579 l 564 590 l 576 601 l 593 613 q 651 687 619 661 q 450 1220 798 1072 l 433 1220 m 61 229 q 54 6 16 106 l 94 0 l 112 6 l 129 0 q 278 0 219 8 l 318 0 l 347 0 l 404 0 l 427 0 l 490 0 l 513 0 l 530 -5 q 656 0 607 6 q 668 11 659 11 l 668 29 l 668 51 l 668 69 l 673 183 q 621 229 662 222 l 599 217 q 501 223 540 215 q 456 217 472 216 l 433 217 l 410 223 q 341 223 371 216 q 227 229 274 216 l 221 217 l 204 223 q 61 229 119 216 "},"ü":{"x_min":0,"x_max":0,"ha":232},"¯":{"x_min":0,"x_max":0,"ha":244},"Z":{"x_min":16.953125,"x_max":638.203125,"ha":767,"o":"m 29 1196 l 29 1005 l 104 999 l 185 993 l 203 993 l 220 993 l 267 993 q 360 987 320 996 q 290 825 324 884 q 261 738 282 773 l 249 703 l 244 686 l 231 680 q 208 622 225 648 l 208 598 q 168 535 181 562 q 145 471 158 497 l 139 454 l 127 436 q 87 343 114 383 q 29 222 71 268 l 17 187 l 17 129 l 23 106 l 17 94 l 17 54 q 17 8 16 26 l 46 2 l 63 2 l 104 2 l 122 2 l 139 2 q 231 -3 193 4 l 267 2 q 278 -9 277 -3 q 324 -3 301 -2 l 336 2 q 417 2 383 0 l 481 2 q 615 2 558 -10 l 638 13 l 638 42 l 632 60 l 638 77 q 632 94 632 86 l 638 129 q 632 227 626 185 l 620 245 l 603 240 l 579 240 l 556 240 l 539 240 l 516 240 l 499 233 q 435 245 463 233 q 295 245 355 231 l 295 274 l 313 303 l 324 338 l 342 367 l 347 390 l 354 402 l 388 489 q 440 622 427 565 l 458 639 l 458 662 l 470 674 l 470 691 l 481 697 q 516 784 497 752 l 522 802 l 545 848 q 574 917 560 893 q 632 1028 597 986 l 632 1051 l 638 1062 l 638 1085 l 638 1219 l 603 1230 l 504 1230 l 470 1230 l 435 1224 l 255 1230 l 231 1230 l 133 1230 l 115 1230 l 46 1230 l 29 1196 "},"u":{"x_min":19.671875,"x_max":655.15625,"ha":775,"o":"m 21 1213 q 21 1136 18 1167 l 21 855 q 27 708 19 765 q 32 596 21 643 l 32 579 l 27 561 l 27 391 q 27 373 29 382 l 27 356 q 32 238 34 286 q 50 179 50 206 q 285 -8 132 18 q 303 3 293 0 q 303 109 297 68 q 255 221 303 185 l 250 244 l 250 261 l 250 303 l 244 320 q 244 432 257 382 l 250 455 q 244 502 240 479 l 244 520 l 244 596 l 244 614 l 244 632 l 244 708 l 244 743 l 244 778 l 238 819 q 244 902 236 866 l 238 937 q 238 1013 241 982 l 238 1031 q 244 1078 238 1060 q 238 1089 236 1084 q 232 1230 245 1169 l 208 1230 l 109 1230 l 91 1230 l 21 1230 l 21 1213 m 443 1230 q 420 1166 421 1195 l 420 1089 q 425 1031 429 1056 q 420 937 425 975 l 420 872 l 425 837 l 432 449 q 449 320 448 368 l 455 291 l 443 285 q 390 185 430 222 l 390 132 q 396 120 398 126 l 396 103 q 396 9 395 48 q 414 -8 410 2 q 626 168 556 48 q 643 208 631 193 q 655 291 646 257 l 649 332 l 649 362 l 649 396 l 649 414 l 649 438 l 643 537 l 643 555 l 643 573 l 643 678 l 643 702 l 643 720 l 643 743 l 643 849 l 643 872 l 637 913 l 643 931 l 643 948 l 637 961 l 643 978 q 637 1054 633 1020 q 626 1224 644 1154 l 613 1230 l 590 1230 l 573 1230 l 549 1230 l 443 1230 "},"":{"x_min":0,"x_max":0,"ha":326},"˜":{"x_min":0,"x_max":0,"ha":328},"Ó":{"x_min":0,"x_max":0,"ha":472},"k":{"x_min":22.578125,"x_max":657.875,"ha":785,"o":"m 23 1205 l 23 876 q 29 744 19 799 l 29 704 l 23 692 q 29 680 31 687 l 29 663 l 23 548 q 23 484 32 515 l 29 450 l 23 433 l 29 410 l 29 156 q 29 64 29 101 q 58 -10 26 16 q 156 -10 113 0 l 173 -10 q 237 0 208 0 l 242 41 l 242 58 l 242 81 l 242 99 l 242 115 l 242 173 l 237 225 l 242 248 q 248 329 240 295 l 242 346 l 242 404 l 242 427 l 242 444 l 242 560 q 242 634 240 604 l 242 657 q 242 756 231 711 l 237 773 q 237 842 240 815 q 231 940 244 894 l 237 957 l 237 975 l 237 992 l 237 1009 q 242 1056 237 1040 q 254 1176 235 1123 q 237 1217 229 1197 l 219 1217 l 196 1217 l 179 1217 l 64 1217 l 23 1205 m 433 1194 l 427 1176 l 415 1130 q 387 1026 413 1067 q 335 842 385 918 l 335 819 l 335 779 l 341 761 l 341 738 q 335 680 333 707 l 335 531 l 346 519 q 364 461 349 486 l 358 438 l 375 415 l 375 375 l 387 346 l 387 306 q 410 225 410 264 l 404 208 q 415 185 415 198 l 415 156 l 427 139 q 427 81 428 105 q 450 -10 448 31 l 484 -10 l 502 0 l 542 -10 l 583 0 q 646 0 620 -6 l 657 41 l 646 69 l 640 99 l 623 191 q 617 219 617 206 l 617 237 q 600 306 600 277 q 588 369 588 341 l 583 398 q 565 491 568 453 l 565 507 q 560 525 560 516 l 554 542 l 548 560 l 548 583 l 548 600 q 525 733 523 668 l 537 744 q 565 871 542 819 l 571 894 q 588 957 584 931 l 594 975 l 606 986 l 606 1003 l 611 1026 l 617 1044 l 652 1211 l 629 1217 l 611 1217 l 588 1217 l 548 1217 q 444 1217 484 1211 l 433 1194 "},"ˇ":{"x_min":0,"x_max":0,"ha":244},"Ù":{"x_min":0,"x_max":0,"ha":448},"Ÿ":{"x_min":0,"x_max":0,"ha":357},"¢":{"x_min":0,"x_max":0,"ha":431},"Ω":{"x_min":0,"x_max":0,"ha":979},"ß":{"x_min":0,"x_max":0,"ha":338},"é":{"x_min":0,"x_max":0,"ha":330},"s":{"x_min":27.296875,"x_max":742.125,"ha":846,"o":"m 253 1237 q 235 1231 244 1230 q 152 1172 197 1187 q 122 1142 139 1152 q 87 1077 105 1104 q 51 1024 69 1044 q 295 573 20 689 l 301 560 l 318 555 l 324 543 l 342 537 q 401 489 379 512 l 442 478 q 520 371 499 425 q 431 228 512 268 l 437 139 q 442 -8 430 50 q 579 33 522 -3 q 739 394 760 180 q 722 448 723 421 l 710 472 l 656 579 l 644 584 q 573 650 607 629 l 550 674 q 466 733 497 698 q 271 864 347 779 q 277 935 270 908 q 312 982 295 963 q 324 1030 316 1009 l 318 1047 l 324 1059 q 330 1125 322 1095 q 324 1220 321 1180 q 253 1237 286 1237 m 395 1214 q 401 1166 404 1191 l 401 1030 l 425 994 q 472 946 458 974 q 478 881 472 910 l 496 869 l 514 869 l 537 875 l 561 875 q 579 881 571 882 l 597 881 q 698 893 658 893 q 698 994 714 947 q 401 1231 617 1214 l 395 1214 m 182 389 q 27 299 18 391 q 282 -8 87 69 l 301 -8 l 342 -20 q 342 193 358 109 q 229 389 244 252 l 182 389 "},"B":{"x_min":12.203125,"x_max":646.3125,"ha":774,"o":"m 383 1258 q 341 1246 362 1243 q 347 1110 360 1177 q 353 1058 358 1081 q 436 875 466 996 q 341 710 456 739 l 341 669 q 341 539 347 590 q 430 363 459 486 q 330 180 455 227 l 335 162 l 341 145 l 341 80 q 347 -13 340 26 q 630 251 602 14 q 600 563 671 419 l 589 569 l 506 622 q 589 669 550 660 q 618 704 592 698 q 383 1258 731 1186 m 106 1246 q 12 1216 50 1240 l 12 1199 q 18 1069 21 1119 l 18 910 l 12 898 q 18 887 19 893 q 18 781 16 824 l 18 675 q 12 604 18 631 l 18 545 l 12 427 l 12 27 l 23 10 q 223 15 128 -28 l 236 56 l 229 104 l 223 139 l 223 186 l 229 210 l 223 221 q 229 381 217 314 l 223 416 q 218 463 223 445 l 223 498 l 229 551 q 223 628 222 594 l 223 663 l 229 675 q 229 746 223 718 q 223 781 223 765 l 229 798 l 229 910 l 223 934 l 223 957 l 223 992 l 218 1016 l 223 1034 l 223 1051 l 229 1075 q 229 1211 223 1155 q 218 1228 221 1218 l 170 1228 q 106 1246 137 1243 "},"…":{"x_min":0,"x_max":0,"ha":537},"?":{"x_min":0,"x_max":0,"ha":385},"H":{"x_min":30.34375,"x_max":700.609375,"ha":819,"o":"m 154 1244 q 32 1215 82 1241 l 32 646 l 32 628 l 32 564 q 38 431 28 486 q 38 326 27 368 l 32 309 l 38 240 q 44 7 19 101 l 96 -4 q 113 2 105 2 q 149 2 132 4 q 247 -4 204 8 l 265 7 l 265 25 l 270 42 q 270 187 263 130 q 265 268 260 233 l 265 286 l 265 315 l 265 333 l 265 356 l 265 373 l 265 489 q 317 524 308 486 l 317 571 l 317 588 l 317 663 q 299 698 304 680 q 265 704 282 697 l 270 745 q 265 826 274 791 q 265 849 266 841 l 270 866 q 270 942 260 908 q 265 1041 259 999 l 265 1058 l 265 1076 l 265 1099 l 265 1117 l 259 1233 q 154 1244 195 1244 m 480 1233 q 456 1174 462 1199 q 456 1047 467 1104 l 456 988 l 462 977 l 462 959 l 456 866 q 456 820 463 839 q 467 704 475 755 q 415 675 427 698 l 415 594 q 415 518 421 550 q 462 501 436 499 q 462 390 467 436 l 467 118 q 474 7 465 54 l 491 7 l 514 7 l 613 7 l 630 7 l 700 7 l 700 25 l 700 42 l 700 118 l 700 141 l 700 240 l 700 257 l 700 326 l 700 344 q 694 437 693 398 l 700 472 l 694 507 l 694 541 l 700 576 l 700 594 l 694 605 l 700 628 l 694 640 l 700 733 l 694 756 l 700 797 q 694 913 690 864 l 700 931 l 694 977 l 700 1006 q 700 1233 686 1144 l 480 1233 "},"î":{"x_min":0,"x_max":0,"ha":159},"c":{"x_min":12.203125,"x_max":656.421875,"ha":786,"o":"m 406 1237 q 395 1220 404 1224 l 395 1011 q 465 947 442 985 l 465 912 q 470 808 460 853 l 493 802 l 505 808 q 592 843 552 836 q 644 866 617 864 q 638 999 659 937 q 406 1237 588 1197 m 273 1231 q 261 1220 267 1221 l 244 1214 l 215 1191 l 198 1191 l 180 1185 q 110 1150 143 1161 l 105 1133 l 75 1104 l 70 1092 q 29 1011 50 1040 l 23 971 l 18 935 l 18 790 l 12 762 l 18 738 q 18 674 12 704 l 18 541 q 18 460 14 493 l 12 448 q 18 367 12 402 l 18 303 q 41 152 16 217 q 250 -9 130 33 l 302 2 l 307 13 q 307 118 296 71 q 250 233 299 193 l 238 333 q 238 425 244 387 l 244 442 l 238 465 l 244 483 l 244 529 l 244 646 q 250 721 241 689 q 250 779 241 753 l 244 796 l 244 819 l 250 837 q 244 965 238 915 q 314 1028 264 1015 l 314 1051 l 314 1069 q 307 1150 314 1115 q 314 1226 315 1194 l 273 1231 m 465 408 q 470 280 473 329 q 389 204 442 222 l 395 193 l 383 176 q 389 129 385 147 l 389 106 q 383 8 382 45 q 638 217 585 -10 q 650 385 666 305 l 633 396 l 592 413 l 488 448 l 465 408 "},"¶":{"x_min":0,"x_max":0,"ha":305},"−":{"x_min":0,"x_max":0,"ha":431},"≠":{"x_min":0,"x_max":0,"ha":431},"•":{"x_min":0,"x_max":0,"ha":262},"¥":{"x_min":0,"x_max":0,"ha":431},"(":{"x_min":0,"x_max":0,"ha":228},"U":{"x_min":19.671875,"x_max":655.15625,"ha":775,"o":"m 21 1213 q 21 1136 18 1167 l 21 855 q 27 708 19 765 q 32 596 21 643 l 32 579 l 27 561 l 27 391 q 27 373 29 382 l 27 356 q 32 238 34 286 q 50 179 50 206 q 285 -8 132 18 q 303 3 293 0 q 303 109 297 68 q 255 221 303 185 l 250 244 l 250 261 l 250 303 l 244 320 q 244 432 257 382 l 250 455 q 244 502 240 479 l 244 520 l 244 596 l 244 614 l 244 632 l 244 708 l 244 743 l 244 778 l 238 819 q 244 902 236 866 l 238 937 q 238 1013 241 982 l 238 1031 q 244 1078 238 1060 q 238 1089 236 1084 q 232 1230 245 1169 l 208 1230 l 109 1230 l 91 1230 l 21 1230 l 21 1213 m 443 1230 q 420 1166 421 1195 l 420 1089 q 425 1031 429 1056 q 420 937 425 975 l 420 872 l 425 837 l 432 449 q 449 320 448 368 l 455 291 l 443 285 q 390 185 430 222 l 390 132 q 396 120 398 126 l 396 103 q 396 9 395 48 q 414 -8 410 2 q 626 168 556 48 q 643 208 631 193 q 655 291 646 257 l 649 332 l 649 362 l 649 396 l 649 414 l 649 438 l 643 537 l 643 555 l 643 573 l 643 678 l 643 702 l 643 720 l 643 743 l 643 849 l 643 872 l 637 913 l 643 931 l 643 948 l 637 961 l 643 978 q 637 1054 633 1020 q 626 1224 644 1154 l 613 1230 l 590 1230 l 573 1230 l 549 1230 l 443 1230 "},"◊":{"x_min":0,"x_max":0,"ha":165},"Ñ":{"x_min":0,"x_max":0,"ha":415},"F":{"x_min":17.015625,"x_max":634.625,"ha":763,"o":"m 25 1215 l 25 392 l 25 362 l 25 183 l 19 165 l 25 136 q 19 8 12 58 l 42 -2 l 60 3 q 199 -2 139 17 l 228 8 l 228 84 l 228 107 l 228 211 l 228 276 l 228 299 l 228 322 l 228 345 l 228 368 l 228 467 l 228 484 l 228 554 l 246 548 l 269 548 l 292 548 l 333 548 l 437 548 l 460 588 l 460 612 l 460 629 l 455 640 q 455 745 461 697 l 425 757 q 234 769 312 745 l 240 797 l 234 815 l 240 844 l 234 890 l 234 908 l 240 1012 q 286 1035 265 1031 l 309 1030 l 339 1035 q 402 1030 375 1028 l 432 1030 l 448 1030 l 472 1030 l 489 1035 l 501 1030 l 512 1035 q 605 1030 568 1026 q 628 1226 647 1131 l 594 1238 l 559 1233 l 530 1233 l 512 1233 l 501 1238 q 432 1238 457 1234 l 391 1233 l 309 1233 l 292 1233 q 246 1238 265 1238 l 182 1238 l 164 1244 l 48 1244 l 25 1215 "},"­":{"x_min":0,"x_max":0,"ha":431},":":{"x_min":0,"x_max":0,"ha":157},"Û":{"x_min":0,"x_max":0,"ha":448},"*":{"x_min":0,"x_max":0,"ha":334},"†":{"x_min":0,"x_max":0,"ha":306},"°":{"x_min":0,"x_max":0,"ha":193},"V":{"x_min":18.3125,"x_max":651.09375,"ha":781,"o":"m 459 1207 l 453 1184 q 436 1103 439 1136 l 430 1085 l 424 1051 l 419 1010 l 413 986 l 406 946 l 401 934 l 389 882 l 401 859 q 413 830 411 844 q 436 725 433 771 l 442 708 l 465 609 l 476 598 q 499 487 474 532 l 523 510 l 535 609 q 552 691 550 655 l 558 719 l 564 754 l 575 777 l 581 824 l 581 847 l 587 864 l 598 923 l 604 946 l 604 969 q 621 1045 621 1011 q 651 1219 651 1148 q 639 1230 640 1224 l 616 1230 l 598 1230 l 575 1230 l 471 1230 l 459 1207 m 134 1219 q 122 1213 128 1211 q 18 1201 60 1218 l 18 1161 l 41 1062 q 59 969 59 1008 l 70 923 l 82 911 q 88 853 88 878 q 111 771 107 807 q 140 661 124 705 l 140 626 l 151 609 l 151 574 q 157 557 157 565 l 181 487 l 186 435 q 192 406 192 419 l 204 383 l 215 318 q 221 284 221 300 q 233 214 236 252 q 274 34 279 122 q 290 0 286 16 q 413 0 358 -10 l 419 11 q 442 145 440 89 q 465 238 465 189 l 453 278 l 442 318 q 430 365 433 341 q 413 435 414 407 l 401 481 l 395 499 l 378 580 l 378 603 q 349 691 354 647 l 349 708 q 331 795 331 754 l 320 818 l 320 836 q 308 864 309 849 l 302 882 q 297 900 297 891 l 290 940 q 279 1004 276 973 l 267 1022 l 267 1039 l 267 1056 l 262 1074 q 227 1207 234 1154 l 134 1219 "},"å":{"x_min":0,"x_max":0,"ha":250}," ":{"x_min":0,"x_max":0,"ha":338},"0":{"x_min":40.046875,"x_max":699.25,"ha":800,"o":"m 297 1230 q 94 1091 166 1187 l 71 998 l 59 940 l 59 910 l 53 893 q 53 788 52 816 l 42 741 l 42 579 q 321 -8 16 16 l 321 38 l 321 154 l 321 183 q 263 468 231 310 l 263 492 l 263 521 l 263 556 l 263 585 l 263 602 l 263 632 l 263 649 l 263 672 l 263 695 l 263 718 l 263 777 l 263 794 l 263 811 l 263 829 l 263 876 q 269 969 261 929 q 321 1021 292 1007 l 321 1068 l 321 1114 l 321 1230 l 297 1230 m 425 1201 l 425 1021 q 489 969 460 988 l 489 946 l 489 870 q 489 771 495 811 q 484 725 489 741 l 489 684 l 472 655 l 489 643 l 489 364 l 484 317 q 484 276 488 295 l 466 242 q 408 172 424 212 q 414 154 414 163 q 425 -2 406 64 q 629 96 546 16 q 676 206 651 166 l 676 230 l 681 247 l 681 271 l 681 288 l 687 311 q 693 370 686 345 l 693 416 l 699 427 l 699 474 l 699 590 l 699 614 l 699 637 l 699 660 l 699 684 l 699 707 l 699 730 l 699 748 l 699 771 q 693 829 689 803 q 681 928 681 887 q 670 1027 670 986 q 658 1079 657 1058 q 448 1224 575 1201 l 425 1201 "},"":{"x_min":0,"x_max":0,"ha":399},"”":{"x_min":0,"x_max":0,"ha":203},"¾":{"x_min":0,"x_max":0,"ha":533},"@":{"x_min":0,"x_max":0,"ha":393},"ö":{"x_min":0,"x_max":0,"ha":248},"i":{"x_min":21.03125,"x_max":246.1875,"ha":372,"o":"m 101 1230 q 44 1224 71 1218 l 21 1207 l 21 1150 l 27 1115 l 21 1098 l 27 1069 q 27 890 19 959 l 27 792 l 27 769 l 27 596 l 32 584 q 27 510 23 541 l 32 475 l 27 446 l 32 411 l 27 382 l 32 365 l 32 36 l 38 2 q 130 -9 91 6 q 246 8 198 8 l 246 54 l 246 71 l 246 186 l 246 209 l 246 307 l 246 324 l 246 394 l 246 411 l 246 429 l 246 503 l 246 521 l 246 538 l 246 556 l 246 596 l 246 619 l 246 722 l 246 803 l 246 832 l 246 890 l 246 908 l 246 1005 l 246 1034 l 246 1051 l 246 1069 l 240 1081 q 246 1127 240 1109 l 234 1219 q 113 1224 168 1239 l 101 1230 "},"≤":{"x_min":0,"x_max":0,"ha":232},"Õ":{"x_min":0,"x_max":0,"ha":472},"þ":{"x_min":0,"x_max":0,"ha":236},"]":{"x_min":0,"x_max":0,"ha":212},"m":{"x_min":0.671875,"x_max":790.8125,"ha":920,"o":"m 591 1216 l 590 1198 q 588 1123 587 1153 l 581 845 q 585 763 590 799 l 584 479 q 588 409 583 438 q 592 322 579 363 q 589 201 577 255 l 583 189 q 601 14 582 79 q 781 22 704 1 l 783 86 l 784 109 q 784 126 780 118 l 784 143 l 785 161 q 786 179 781 170 l 786 196 l 781 242 q 789 311 788 285 l 777 335 l 790 370 l 785 404 q 781 451 786 434 q 782 515 788 489 l 788 538 l 783 550 l 785 613 q 780 672 779 647 l 781 701 l 782 747 l 783 770 l 777 805 l 784 828 q 785 857 781 843 q 786 880 781 871 q 787 944 779 914 q 782 973 781 960 l 777 985 l 777 1002 l 779 1072 l 779 1089 l 779 1106 q 777 1222 784 1175 l 765 1228 q 615 1238 677 1219 l 591 1216 m 22 1212 l 18 1079 l 35 1049 l 52 1009 l 56 968 l 68 956 l 67 939 q 105 828 99 877 q 116 798 114 811 l 127 769 q 153 676 150 716 l 170 652 l 170 634 q 191 564 187 594 q 229 442 225 502 l 246 424 l 267 330 l 278 307 l 283 284 l 295 266 l 299 237 l 304 202 q 309 185 311 193 l 321 172 l 320 149 l 332 132 l 342 91 q 358 9 344 44 q 416 19 392 12 l 428 60 q 430 94 425 79 l 436 118 l 448 146 l 448 169 l 461 192 l 461 210 l 461 227 l 474 233 l 499 337 l 495 377 q 503 504 493 454 l 498 528 l 504 545 q 500 609 495 579 l 502 690 l 503 708 l 503 731 l 498 748 l 504 765 l 499 777 q 507 864 510 823 q 461 876 484 876 l 454 853 l 442 843 l 436 808 l 423 762 l 392 676 l 363 688 l 358 722 q 342 787 341 756 q 309 881 314 837 l 305 915 q 294 945 295 931 l 283 968 l 262 1067 l 251 1079 l 251 1102 q 214 1225 222 1171 l 173 1226 l 155 1226 q 109 1222 127 1226 q 46 1229 75 1232 l 22 1212 m 20 673 l 8 644 l 13 615 l 12 575 q 4 465 0 510 l 2 383 l 6 354 l 11 302 l 10 256 l 4 238 l 2 174 q 0 111 6 141 q 4 18 11 57 q 14 -10 12 2 l 32 -16 l 44 -11 l 61 -17 l 78 -12 l 143 -14 q 200 -9 176 -8 l 206 7 l 213 30 l 213 48 l 203 88 l 206 204 q 179 275 193 248 l 173 304 l 162 327 l 158 356 q 142 426 140 391 l 130 438 q 104 532 125 493 l 104 549 q 66 649 78 606 l 26 673 l 20 673 l 26 673 l 20 673 "},"8":{"x_min":126.953125,"x_max":798.40625,"ha":830,"o":"m 361 1220 l 343 1220 l 222 1156 q 251 634 51 864 l 233 623 l 158 531 q 407 3 32 58 q 361 252 462 149 q 349 385 349 332 q 361 472 361 439 q 436 531 400 513 q 442 554 438 545 l 442 588 q 442 687 429 642 l 425 727 q 373 768 392 741 l 373 837 l 367 872 l 373 901 q 373 977 367 945 l 413 1011 l 425 1075 q 425 1144 421 1116 q 425 1208 419 1178 q 373 1237 396 1230 l 361 1220 m 523 1237 q 495 1203 510 1217 l 495 1167 q 495 1052 504 1101 q 512 1017 507 1034 q 564 971 552 1005 q 506 733 597 810 l 500 693 l 495 658 l 500 640 l 495 623 q 506 531 507 569 q 570 322 596 442 q 489 189 554 236 q 482 9 503 86 l 500 14 q 546 -8 520 -10 q 604 9 574 7 q 651 32 628 29 q 668 611 936 330 q 720 675 682 653 q 750 722 729 706 q 523 1237 853 1120 "},"ž":{"x_min":0,"x_max":0,"ha":313},"R":{"x_min":0,"x_max":658.5625,"ha":789,"o":"m 158 1237 q 52 1231 99 1226 q 0 1214 27 1216 l 0 1197 q 6 1068 8 1117 l 11 991 l 6 968 l 6 904 q 11 775 16 823 l 11 733 q 17 587 10 644 l 17 558 l 11 540 l 17 522 q 17 429 12 467 l 11 400 q 11 318 16 353 l 11 288 l 17 271 l 17 -4 l 40 -4 l 64 -4 l 82 -4 l 105 -4 l 210 -4 l 228 36 l 228 153 l 222 282 l 216 324 q 222 453 227 401 l 222 493 q 228 675 218 606 l 222 693 l 222 739 q 222 833 227 794 l 222 874 l 222 897 l 216 921 l 216 962 l 222 991 l 216 1009 l 216 1026 l 216 1050 l 216 1073 l 216 1091 l 216 1115 l 222 1126 q 216 1220 212 1180 q 158 1237 181 1233 m 392 1231 q 322 1161 320 1224 q 333 1050 351 1106 q 409 728 489 975 q 333 669 351 712 l 333 651 q 339 535 343 583 l 351 499 q 427 464 399 499 l 427 446 q 433 370 437 406 l 433 142 q 438 -4 427 54 l 468 -4 l 485 2 l 497 -4 l 515 -4 l 538 2 q 644 2 602 -5 l 649 19 l 649 36 l 649 60 l 649 78 l 649 195 l 649 229 l 649 253 l 649 282 l 649 300 l 649 347 l 649 464 q 638 511 640 486 l 620 552 l 609 558 q 538 604 573 593 l 538 628 q 644 962 699 751 q 392 1231 640 1212 "},"á":{"x_min":0,"x_max":0,"ha":250},"×":{"x_min":0,"x_max":0,"ha":431},"o":{"x_min":4.0625,"x_max":661.265625,"ha":781,"o":"m 246 1224 q 61 1102 128 1182 l 44 1062 l 38 1045 q 21 947 31 984 l 21 907 l 15 889 l 9 872 l 9 733 q 9 561 0 632 l 4 543 q 9 497 12 522 q 21 405 9 444 l 21 387 l 27 307 q 38 249 40 274 l 44 215 q 78 100 71 144 l 90 105 q 298 2 168 -12 l 303 18 q 303 117 296 77 q 303 174 301 150 l 292 209 q 234 255 250 225 q 229 347 227 310 q 223 423 231 391 l 229 463 l 223 492 l 223 520 l 223 618 l 217 693 q 217 774 221 742 l 217 792 l 223 815 q 217 832 217 823 l 217 947 l 229 964 l 234 987 q 280 1039 270 1006 q 246 1224 296 1215 m 367 1178 q 367 1056 378 1108 q 373 1016 373 1037 q 442 924 424 978 l 442 532 l 430 503 l 442 486 l 436 457 q 442 278 446 345 q 384 215 417 236 l 384 192 q 413 -9 370 75 q 609 134 543 31 l 621 192 l 632 226 q 649 330 632 287 l 649 347 l 649 382 l 649 400 l 649 423 l 649 440 q 655 607 662 543 l 661 630 l 655 653 l 655 676 l 655 699 q 649 779 644 746 l 649 803 l 644 826 q 632 924 629 881 l 626 941 l 621 953 l 609 1045 q 580 1097 585 1070 q 384 1212 491 1192 l 367 1178 "},"5":{"x_min":32.5625,"x_max":684.65625,"ha":815,"o":"m 589 1237 q 559 1231 573 1231 l 530 1231 l 348 1231 l 267 1231 l 249 1231 l 231 1226 l 214 1231 q 90 1226 137 1222 l 90 1184 l 96 1173 q 90 1102 86 1140 l 79 1079 l 67 950 l 61 927 l 61 886 l 50 804 l 50 786 l 44 693 l 50 669 l 61 663 l 73 651 q 219 534 170 594 l 237 534 q 319 587 277 575 l 325 628 q 331 757 310 698 l 314 798 l 296 792 q 267 780 281 781 l 267 827 l 267 845 l 278 886 l 278 904 q 296 1003 299 958 l 314 1015 l 348 1015 l 372 1020 l 401 1020 l 425 1015 l 448 1020 l 472 1015 l 489 1020 l 507 1015 q 641 1020 585 1028 q 647 1226 666 1136 l 589 1237 m 396 757 l 396 710 l 389 593 l 460 529 l 460 511 q 465 417 472 457 q 472 405 473 411 l 472 311 q 460 229 460 265 q 396 165 415 206 l 401 153 l 401 113 q 396 7 396 48 q 682 364 672 -11 q 413 798 706 716 l 396 757 m 202 370 l 179 358 l 32 294 q 225 1 52 85 q 319 189 348 -64 q 237 341 233 248 l 219 370 l 214 370 l 219 370 l 208 370 l 214 370 l 202 370 l 208 370 l 202 370 "},"õ":{"x_min":0,"x_max":0,"ha":248},"7":{"x_min":32.5625,"x_max":651.53125,"ha":779,"o":"m 38 1226 l 38 1202 l 32 1190 l 38 1167 q 44 1033 33 1089 l 67 1027 q 108 1033 88 1033 l 137 1027 q 207 1033 181 1028 l 225 1033 l 242 1027 l 289 1033 q 382 1033 343 1028 l 417 1027 q 411 946 402 982 l 446 933 q 476 940 463 941 q 522 940 503 947 l 557 940 q 610 946 588 947 q 651 1022 629 990 l 651 1039 q 639 1237 653 1157 l 610 1237 l 581 1237 l 552 1231 l 476 1231 l 464 1237 q 377 1237 416 1231 l 359 1237 l 341 1237 l 324 1237 q 219 1237 264 1226 q 44 1237 124 1212 l 38 1226 m 470 870 q 359 864 408 853 q 335 841 349 846 q 301 712 328 763 l 295 682 l 289 659 l 271 577 l 265 554 q 242 490 251 520 l 242 467 q 225 385 227 419 q 202 274 203 328 l 189 227 q 172 134 188 173 q 166 64 172 92 q 160 6 159 30 l 178 0 l 207 6 l 219 0 l 236 0 q 347 0 302 -5 l 377 29 l 377 46 l 377 116 l 394 221 l 394 239 l 400 263 l 406 309 q 417 368 408 343 q 458 525 434 461 l 458 543 l 464 566 l 476 583 q 493 659 478 626 q 528 765 500 724 q 552 834 534 807 l 540 864 q 470 870 496 870 "},"K":{"x_min":22.578125,"x_max":657.875,"ha":785,"o":"m 23 1205 l 23 876 q 29 744 19 799 l 29 704 l 23 692 q 29 680 31 687 l 29 663 l 23 548 q 23 484 32 515 l 29 450 l 23 433 l 29 410 l 29 156 q 29 64 29 101 q 58 -10 26 16 q 156 -10 113 0 l 173 -10 q 237 0 208 0 l 242 41 l 242 58 l 242 81 l 242 99 l 242 115 l 242 173 l 237 225 l 242 248 q 248 329 240 295 l 242 346 l 242 404 l 242 427 l 242 444 l 242 560 q 242 634 240 604 l 242 657 q 242 756 231 711 l 237 773 q 237 842 240 815 q 231 940 244 894 l 237 957 l 237 975 l 237 992 l 237 1009 q 242 1056 237 1040 q 254 1176 235 1123 q 237 1217 229 1197 l 219 1217 l 196 1217 l 179 1217 l 64 1217 l 23 1205 m 433 1194 l 427 1176 l 415 1130 q 387 1026 413 1067 q 335 842 385 918 l 335 819 l 335 779 l 341 761 l 341 738 q 335 680 333 707 l 335 531 l 346 519 q 364 461 349 486 l 358 438 l 375 415 l 375 375 l 387 346 l 387 306 q 410 225 410 264 l 404 208 q 415 185 415 198 l 415 156 l 427 139 q 427 81 428 105 q 450 -10 448 31 l 484 -10 l 502 0 l 542 -10 l 583 0 q 646 0 620 -6 l 657 41 l 646 69 l 640 99 l 623 191 q 617 219 617 206 l 617 237 q 600 306 600 277 q 588 369 588 341 l 583 398 q 565 491 568 453 l 565 507 q 560 525 560 516 l 554 542 l 548 560 l 548 583 l 548 600 q 525 733 523 668 l 537 744 q 565 871 542 819 l 571 894 q 588 957 584 931 l 594 975 l 606 986 l 606 1003 l 611 1026 l 617 1044 l 652 1211 l 629 1217 l 611 1217 l 588 1217 l 548 1217 q 444 1217 484 1211 l 433 1194 "},",":{"x_min":0,"x_max":0,"ha":161},"d":{"x_min":12.203125,"x_max":643.015625,"ha":762,"o":"m 29 1237 l 12 1197 q 23 1156 21 1174 l 23 729 q 23 601 21 652 l 23 566 l 23 484 q 23 408 21 440 q 18 309 13 350 l 18 286 q 12 204 22 241 l 12 187 q 12 29 21 94 l 23 6 q 233 23 139 -12 l 239 41 l 239 59 q 239 151 233 112 l 239 175 l 239 239 l 239 257 q 239 408 229 347 l 239 438 l 233 473 l 227 502 l 239 525 q 239 572 232 553 q 233 695 225 640 l 233 718 l 233 747 l 239 771 q 239 928 223 861 q 239 975 232 956 l 233 1015 q 245 1197 229 1123 q 41 1226 140 1250 l 29 1237 m 327 1202 q 333 1068 341 1126 q 339 1015 341 1037 q 415 986 387 1014 l 420 946 l 420 747 q 415 653 423 693 l 420 613 l 408 590 q 420 525 421 557 l 415 502 l 420 478 l 420 455 q 408 303 426 366 l 420 268 q 339 216 391 219 l 321 169 l 327 151 l 333 128 q 339 -5 325 48 q 636 601 675 19 q 350 1237 687 1169 l 327 1202 "},"¨":{"x_min":0,"x_max":0,"ha":252},"Ô":{"x_min":0,"x_max":0,"ha":472},"E":{"x_min":13.359375,"x_max":644.3125,"ha":775,"o":"m 48 1244 q 13 1209 28 1219 q 19 1081 25 1130 l 19 999 q 13 893 13 931 l 13 100 q 19 6 12 46 l 54 0 l 78 12 l 101 12 l 165 0 l 223 0 l 416 0 l 434 -4 l 474 -4 l 492 -4 l 510 -4 q 603 -10 564 -2 q 615 0 609 0 l 621 18 l 621 47 l 626 65 l 626 82 l 626 199 l 632 217 q 579 240 606 236 l 550 234 l 474 234 l 457 234 l 393 234 l 369 234 l 352 240 l 335 240 l 217 234 l 229 280 l 229 298 l 235 339 l 235 444 l 235 549 l 252 537 l 270 537 l 288 537 l 305 537 q 364 537 339 535 l 381 532 q 451 537 421 543 l 474 561 l 480 573 l 480 619 l 480 736 l 463 754 l 422 754 l 404 754 l 387 754 q 246 742 308 759 l 217 754 l 217 777 l 229 794 l 229 818 q 235 888 235 862 l 235 906 l 235 923 q 241 1040 232 992 l 264 1040 q 322 1028 297 1039 q 404 1034 369 1026 q 474 1034 448 1031 q 626 1034 568 1022 l 644 1063 l 638 1087 l 644 1127 q 644 1203 626 1169 q 632 1233 634 1218 l 597 1233 q 498 1238 537 1229 l 469 1233 l 445 1233 q 364 1233 398 1238 l 346 1233 l 305 1238 l 293 1233 q 223 1238 252 1241 l 206 1238 l 188 1244 l 141 1244 l 124 1244 l 48 1244 "},"Y":{"x_min":16.28125,"x_max":691.375,"ha":818,"o":"m 16 1201 l 21 1190 l 21 1173 l 50 1081 q 79 988 72 1027 l 90 965 l 90 937 q 125 838 115 883 q 131 815 125 824 l 137 792 l 143 763 l 154 735 l 154 717 q 177 654 177 684 l 183 631 l 194 585 l 206 573 l 212 562 q 246 440 223 489 l 246 377 q 246 285 246 323 l 246 256 q 240 164 247 203 l 246 153 q 235 20 231 72 l 269 -2 l 448 -2 l 442 8 q 459 94 470 50 l 454 118 l 459 216 l 454 239 q 459 285 459 266 q 465 430 455 373 q 448 458 453 444 l 442 493 l 431 533 q 413 591 415 566 q 402 631 403 611 q 379 689 381 663 l 367 735 q 362 746 360 740 l 362 763 q 344 822 347 795 q 321 902 324 870 l 309 919 l 304 954 q 286 1017 289 990 q 281 1034 280 1026 l 275 1052 l 258 1098 l 258 1115 q 229 1224 233 1180 q 206 1230 215 1226 q 194 1224 200 1224 l 148 1224 l 137 1230 q 33 1230 76 1224 l 16 1201 m 489 1207 l 477 1161 l 465 1138 l 459 1115 l 436 1075 q 385 931 420 986 l 390 891 l 396 868 l 402 850 l 413 838 l 413 822 l 431 781 l 442 735 q 448 717 448 726 l 454 706 q 471 619 455 657 q 512 648 497 631 l 517 683 l 546 758 q 563 775 553 770 l 558 798 l 592 891 l 598 908 l 604 931 l 627 994 l 632 1017 l 638 1034 q 650 1046 644 1044 q 685 1150 661 1111 q 690 1219 693 1190 l 673 1224 l 655 1224 l 638 1224 q 505 1224 560 1214 l 489 1207 "},"\"":{"x_min":0,"x_max":0,"ha":161},"‹":{"x_min":0,"x_max":0,"ha":218},"˙":{"x_min":0,"x_max":0,"ha":124},"ê":{"x_min":0,"x_max":0,"ha":330},"Ï":{"x_min":0,"x_max":0,"ha":159},"„":{"x_min":0,"x_max":0,"ha":273},"Â":{"x_min":0,"x_max":0,"ha":413},"Í":{"x_min":0,"x_max":0,"ha":159},"´":{"x_min":0,"x_max":0,"ha":313},"ì":{"x_min":0,"x_max":0,"ha":159},"±":{"x_min":0,"x_max":0,"ha":431},"Ú":{"x_min":0,"x_max":0,"ha":448},"|":{"x_min":0,"x_max":0,"ha":136},"§":{"x_min":0,"x_max":0,"ha":285},"Ý":{"x_min":0,"x_max":0,"ha":357},"b":{"x_min":12.203125,"x_max":646.3125,"ha":774,"o":"m 383 1258 q 341 1246 362 1243 q 347 1110 360 1177 q 353 1058 358 1081 q 436 875 466 996 q 341 710 456 739 l 341 669 q 341 539 347 590 q 430 363 459 486 q 330 180 455 227 l 335 162 l 341 145 l 341 80 q 347 -13 340 26 q 630 251 602 14 q 600 563 671 419 l 589 569 l 506 622 q 589 669 550 660 q 618 704 592 698 q 383 1258 731 1186 m 106 1246 q 12 1216 50 1240 l 12 1199 q 18 1069 21 1119 l 18 910 l 12 898 q 18 887 19 893 q 18 781 16 824 l 18 675 q 12 604 18 631 l 18 545 l 12 427 l 12 27 l 23 10 q 223 15 128 -28 l 236 56 l 229 104 l 223 139 l 223 186 l 229 210 l 223 221 q 229 381 217 314 l 223 416 q 218 463 223 445 l 223 498 l 229 551 q 223 628 222 594 l 223 663 l 229 675 q 229 746 223 718 q 223 781 223 765 l 229 798 l 229 910 l 223 934 l 223 957 l 223 992 l 218 1016 l 223 1034 l 223 1051 l 229 1075 q 229 1211 223 1155 q 218 1228 221 1218 l 170 1228 q 106 1246 137 1243 "},"q":{"x_min":45.859375,"x_max":757.09375,"ha":840,"o":"m 438 1237 q 433 1171 431 1199 l 433 997 l 486 950 l 486 919 q 493 788 499 840 l 486 758 l 486 716 l 493 686 l 486 661 l 486 632 l 493 608 l 493 590 l 486 572 l 493 554 q 499 338 491 389 q 451 194 501 244 l 451 152 q 444 20 453 73 q 463 -15 458 2 q 529 -39 503 -21 q 583 -159 541 -114 l 607 -159 q 678 -87 636 -107 q 727 -33 698 -51 l 727 2 q 678 92 692 50 l 685 110 q 733 182 719 151 l 733 200 l 733 218 l 744 248 q 750 350 743 311 q 756 482 737 425 q 744 494 752 492 q 756 505 750 503 l 750 524 q 756 572 752 554 q 750 691 758 642 l 750 739 q 744 788 750 769 l 750 830 l 744 847 q 738 919 744 893 q 720 1022 733 982 q 702 1081 707 1058 q 630 1165 653 1129 l 607 1165 l 600 1178 l 558 1201 l 547 1207 l 529 1207 l 510 1214 q 438 1237 470 1233 m 301 1225 q 96 1051 168 1159 l 90 1028 l 61 908 l 54 883 l 54 554 q 277 -15 0 156 l 355 -21 l 366 38 q 360 164 341 105 q 355 182 355 173 q 301 236 319 206 q 295 350 303 303 l 301 374 l 295 398 l 295 422 l 295 500 q 295 590 301 555 l 301 619 l 301 644 l 301 661 l 301 686 l 301 710 l 301 733 l 301 758 l 301 859 l 301 878 l 301 950 q 349 1028 337 987 l 355 1045 q 355 1219 332 1143 l 301 1225 "},"Ω":{"x_min":0,"x_max":0,"ha":979},"Ö":{"x_min":0,"x_max":0,"ha":472},"z":{"x_min":16.953125,"x_max":638.203125,"ha":767,"o":"m 29 1196 l 29 1005 l 104 999 l 185 993 l 203 993 l 220 993 l 267 993 q 360 987 320 996 q 290 825 324 884 q 261 738 282 773 l 249 703 l 244 686 l 231 680 q 208 622 225 648 l 208 598 q 168 535 181 562 q 145 471 158 497 l 139 454 l 127 436 q 87 343 114 383 q 29 222 71 268 l 17 187 l 17 129 l 23 106 l 17 94 l 17 54 q 17 8 16 26 l 46 2 l 63 2 l 104 2 l 122 2 l 139 2 q 231 -3 193 4 l 267 2 q 278 -9 277 -3 q 324 -3 301 -2 l 336 2 q 417 2 383 0 l 481 2 q 615 2 558 -10 l 638 13 l 638 42 l 632 60 l 638 77 q 632 94 632 86 l 638 129 q 632 227 626 185 l 620 245 l 603 240 l 579 240 l 556 240 l 539 240 l 516 240 l 499 233 q 435 245 463 233 q 295 245 355 231 l 295 274 l 313 303 l 324 338 l 342 367 l 347 390 l 354 402 l 388 489 q 440 622 427 565 l 458 639 l 458 662 l 470 674 l 470 691 l 481 697 q 516 784 497 752 l 522 802 l 545 848 q 574 917 560 893 q 632 1028 597 986 l 632 1051 l 638 1062 l 638 1085 l 638 1219 l 603 1230 l 504 1230 l 470 1230 l 435 1224 l 255 1230 l 231 1230 l 133 1230 l 115 1230 l 46 1230 l 29 1196 "},"™":{"x_min":0,"x_max":0,"ha":462},"ã":{"x_min":0,"x_max":0,"ha":250},"æ":{"x_min":0,"x_max":0,"ha":507},"®":{"x_min":0,"x_max":0,"ha":507},"É":{"x_min":0,"x_max":0,"ha":439},"~":{"x_min":0,"x_max":0,"ha":431},"³":{"x_min":0,"x_max":0,"ha":203},"¡":{"x_min":0,"x_max":0,"ha":210},"[":{"x_min":0,"x_max":0,"ha":191},"L":{"x_min":19.671875,"x_max":636.5625,"ha":755,"o":"m 128 1222 q 117 1216 123 1215 l 71 1216 l 31 1211 l 19 1182 l 25 544 l 19 504 q 19 406 25 448 q 19 309 21 346 l 19 21 l 36 10 l 59 4 l 82 4 l 105 -1 l 128 -1 l 203 -1 l 221 -1 l 249 -1 l 272 -1 l 289 -1 l 318 -1 l 347 -1 l 364 -1 l 433 -1 l 451 -1 q 583 -6 528 3 q 634 10 614 0 l 634 27 q 628 188 640 126 l 606 200 q 462 200 524 183 q 381 205 416 191 q 255 217 309 188 l 255 257 l 255 292 l 255 332 l 255 366 l 261 406 l 255 441 l 255 458 l 255 481 l 255 527 l 255 544 l 255 562 q 261 659 252 622 l 249 699 l 249 739 l 255 774 l 255 792 l 255 809 q 249 889 246 853 l 255 906 q 255 964 249 940 l 249 987 q 238 1216 262 1123 q 128 1222 173 1228 "}," ":{"x_min":0,"x_max":0,"ha":265},"∑":{"x_min":0,"x_max":0,"ha":948},"%":{"x_min":0,"x_max":0,"ha":431},"P":{"x_min":7,"x_max":625.171875,"ha":744,"o":"m 337 1214 q 337 1197 340 1205 l 343 1115 q 337 1039 335 1072 q 413 992 388 1036 l 413 928 q 419 823 421 865 q 337 729 404 752 l 337 671 q 343 542 335 593 q 623 857 642 548 q 360 1237 642 1192 l 337 1214 m 22 1231 q 10 1074 0 1140 l 10 688 q 16 571 8 619 l 10 507 l 16 472 l 16 448 l 16 221 q 22 0 13 82 q 226 10 146 -8 l 232 52 l 232 99 l 232 145 l 232 191 l 232 209 l 232 326 l 232 349 l 232 455 l 226 495 l 226 531 l 226 571 l 221 583 l 221 600 l 221 624 l 221 729 l 221 752 l 221 781 l 221 881 l 215 898 l 221 910 q 208 1045 221 990 q 208 1220 229 1141 l 191 1231 l 168 1231 l 150 1231 l 127 1231 l 22 1231 "},"∏":{"x_min":0,"x_max":0,"ha":541},"À":{"x_min":0,"x_max":0,"ha":413},"_":{"x_min":0,"x_max":0,"ha":332},"ñ":{"x_min":0,"x_max":0,"ha":260},"+":{"x_min":0,"x_max":0,"ha":431},"‚":{"x_min":0,"x_max":0,"ha":159},"½":{"x_min":0,"x_max":0,"ha":533},"Æ":{"x_min":0,"x_max":0,"ha":555},"Ë":{"x_min":0,"x_max":0,"ha":439},"'":{"x_min":0,"x_max":0,"ha":115},"Š":{"x_min":0,"x_max":0,"ha":421},"ª":{"x_min":0,"x_max":0,"ha":273},"Œ":{"x_min":0,"x_max":0,"ha":647},"˛":{"x_min":0,"x_max":0,"ha":183},"ð":{"x_min":0,"x_max":0,"ha":328},"T":{"x_min":18.3125,"x_max":671.203125,"ha":800,"o":"m 599 1225 l 553 1225 l 524 1225 l 507 1225 l 467 1225 l 449 1225 q 340 1219 386 1215 l 323 1219 l 219 1219 l 156 1219 l 139 1219 q 23 1214 71 1222 l 18 1202 l 23 1173 l 23 1110 q 35 1011 21 1052 l 52 1006 l 69 1006 l 87 1006 q 162 1000 130 1009 q 225 1011 196 1011 l 236 1000 l 242 925 l 236 885 l 236 597 q 236 505 242 544 l 236 482 q 236 407 245 439 q 242 257 251 318 q 248 246 250 252 l 248 148 q 242 62 255 102 l 265 -6 q 328 4 303 -6 q 472 16 413 -12 l 472 56 l 472 96 l 472 113 l 472 137 q 467 229 464 191 l 467 280 l 467 321 l 467 356 l 467 390 q 461 482 468 443 l 467 505 l 467 539 l 461 562 l 467 597 l 461 620 l 461 643 l 461 707 l 461 735 l 461 810 l 461 833 l 461 931 l 461 948 l 461 1018 l 478 1011 l 501 1018 l 513 1011 l 530 1011 l 548 1011 l 662 1011 q 651 1225 684 1128 l 622 1230 l 599 1225 "},"š":{"x_min":0,"x_max":0,"ha":232},"Þ":{"x_min":0,"x_max":0,"ha":391},"j":{"x_min":98.6875,"x_max":708.75,"ha":765,"o":"m 541 1230 q 490 1196 507 1218 q 496 1150 491 1166 l 490 1104 l 490 1024 l 496 989 l 490 949 q 490 868 494 904 l 496 794 q 490 748 496 764 l 496 719 l 490 691 l 496 656 l 490 628 q 490 587 494 606 q 490 501 499 543 q 490 421 493 455 q 478 265 499 331 l 490 248 q 438 174 454 217 l 450 156 l 444 128 q 450 110 450 119 q 455 7 447 48 q 691 162 619 20 l 703 208 l 703 225 l 703 242 l 703 260 l 703 323 l 703 380 l 703 403 l 703 421 l 708 461 l 703 472 l 703 489 l 703 564 l 703 587 l 703 604 l 703 621 l 703 639 l 703 661 l 703 679 l 703 719 l 703 737 l 703 754 q 697 846 706 807 l 697 874 l 697 891 l 697 914 q 697 978 699 958 l 697 995 q 691 1219 704 1133 l 674 1225 q 541 1230 602 1211 m 260 484 q 122 438 188 444 q 358 -4 19 73 l 352 7 q 364 128 377 67 l 364 196 l 323 219 l 318 242 l 312 265 l 312 282 l 318 305 l 312 323 l 318 346 l 312 363 l 312 426 l 312 484 l 260 484 "},"1":{"x_min":22.4375,"x_max":331.453125,"ha":445,"o":"m 130 1230 q 25 1142 82 1170 q 36 972 16 1044 q 137 978 130 1005 l 137 890 q 142 790 133 830 q 142 708 134 743 l 137 678 q 142 579 133 618 l 137 550 l 137 150 q 130 50 139 90 q 130 -2 134 19 l 148 -2 q 195 -8 176 -8 q 301 15 254 -14 q 330 15 318 19 l 324 56 q 330 138 321 103 l 324 155 l 330 173 l 330 191 l 330 232 l 330 256 l 324 267 q 330 362 334 323 l 330 379 l 330 426 l 330 444 q 324 550 334 508 q 324 573 326 565 l 324 590 l 324 614 l 330 637 l 330 655 l 330 837 l 330 902 l 330 931 l 330 1007 l 330 1031 l 330 1131 l 330 1148 l 330 1219 q 318 1230 320 1224 l 219 1230 l 201 1230 l 130 1230 "},"›":{"x_min":0,"x_max":0,"ha":218},"ı":{"x_min":0,"x_max":0,"ha":159},"ä":{"x_min":0,"x_max":0,"ha":250},"<":{"x_min":64.4375,"x_max":610.40625,"ha":674,"o":"m 64 609 l 267 1219 l 610 1219 l 393 609 l 610 -1 l 267 -1 l 64 609 "},"£":{"x_min":0,"x_max":0,"ha":431},"¹":{"x_min":0,"x_max":0,"ha":203},"t":{"x_min":18.3125,"x_max":671.203125,"ha":800,"o":"m 599 1225 l 553 1225 l 524 1225 l 507 1225 l 467 1225 l 449 1225 q 340 1219 386 1215 l 323 1219 l 219 1219 l 156 1219 l 139 1219 q 23 1214 71 1222 l 18 1202 l 23 1173 l 23 1110 q 35 1011 21 1052 l 52 1006 l 69 1006 l 87 1006 q 162 1000 130 1009 q 225 1011 196 1011 l 236 1000 l 242 925 l 236 885 l 236 597 q 236 505 242 544 l 236 482 q 236 407 245 439 q 242 257 251 318 q 248 246 250 252 l 248 148 q 242 62 255 102 l 265 -6 q 328 4 303 -6 q 472 16 413 -12 l 472 56 l 472 96 l 472 113 l 472 137 q 467 229 464 191 l 467 280 l 467 321 l 467 356 l 467 390 q 461 482 468 443 l 467 505 l 467 539 l 461 562 l 467 597 l 461 620 l 461 643 l 461 707 l 461 735 l 461 810 l 461 833 l 461 931 l 461 948 l 461 1018 l 478 1011 l 501 1018 l 513 1011 l 530 1011 l 548 1011 l 662 1011 q 651 1225 684 1128 l 622 1230 l 599 1225 "},"¬":{"x_min":0,"x_max":0,"ha":946},"ù":{"x_min":0,"x_max":0,"ha":232},"W":{"x_min":18.3125,"x_max":931.078125,"ha":1049,"o":"m 488 1237 q 476 1226 482 1227 l 476 1203 l 465 1185 l 459 1162 l 447 1115 l 436 1098 l 436 1069 q 401 953 406 1007 l 413 906 q 424 866 421 885 q 447 767 446 812 q 476 645 476 701 q 488 611 486 628 l 499 570 l 505 535 l 517 506 l 522 472 q 529 442 529 455 l 540 419 l 545 390 q 569 291 567 333 l 592 198 l 598 187 l 609 134 l 644 2 l 714 2 l 725 25 l 725 59 l 731 82 l 737 106 l 743 123 l 743 141 l 749 164 l 749 181 l 754 198 l 754 216 l 760 257 q 777 384 777 335 l 743 483 l 737 524 q 725 552 727 538 l 714 599 q 697 634 701 617 l 685 680 q 668 750 669 722 q 656 779 657 765 q 638 860 640 827 q 633 872 632 866 l 633 889 q 615 924 619 906 l 609 947 q 592 1011 604 986 q 581 1069 591 1045 l 563 1127 l 563 1144 l 545 1220 q 488 1237 515 1236 m 720 1214 q 720 1150 725 1182 q 708 1074 708 1106 q 691 982 689 1031 q 702 965 699 975 l 720 947 l 720 924 l 731 901 l 737 872 l 743 854 q 754 802 753 826 q 790 663 796 734 l 813 628 l 847 640 l 847 663 l 847 692 q 865 756 860 725 l 859 767 q 876 860 879 817 q 894 970 894 925 l 906 1017 l 906 1034 q 929 1237 937 1152 l 911 1237 l 731 1237 l 720 1214 m 18 1191 l 52 1058 l 52 1040 l 76 930 l 82 889 l 93 854 l 99 831 l 111 779 l 111 761 l 122 721 l 128 663 q 145 581 143 635 q 151 552 151 566 l 163 529 l 163 500 q 180 419 180 454 l 192 396 l 192 367 q 204 303 202 333 l 209 280 q 232 181 228 222 l 232 164 q 244 106 246 134 q 256 54 260 80 q 284 -4 267 17 q 349 2 320 4 l 349 30 l 354 59 l 360 88 l 366 118 l 377 193 l 383 216 l 389 239 q 395 286 389 269 l 401 297 q 418 402 405 361 l 418 448 q 401 512 404 484 q 389 576 391 545 l 360 669 l 360 692 l 354 709 q 349 727 349 718 l 349 744 l 343 785 q 325 843 328 817 l 320 866 l 320 883 q 308 959 308 927 l 297 982 l 297 999 q 290 1017 290 1008 l 290 1034 l 279 1051 q 238 1226 271 1155 l 221 1226 l 204 1226 l 24 1226 l 18 1191 "},"ï":{"x_min":0,"x_max":0,"ha":159},">":{"x_min":64.4375,"x_max":610.40625,"ha":674,"o":"m 406 -1 l 64 -1 l 281 609 l 64 1219 l 406 1219 l 610 609 l 406 -1 "},"v":{"x_min":18.3125,"x_max":651.09375,"ha":781,"o":"m 459 1207 l 453 1184 q 436 1103 439 1136 l 430 1085 l 424 1051 l 419 1010 l 413 986 l 406 946 l 401 934 l 389 882 l 401 859 q 413 830 411 844 q 436 725 433 771 l 442 708 l 465 609 l 476 598 q 499 487 474 532 l 523 510 l 535 609 q 552 691 550 655 l 558 719 l 564 754 l 575 777 l 581 824 l 581 847 l 587 864 l 598 923 l 604 946 l 604 969 q 621 1045 621 1011 q 651 1219 651 1148 q 639 1230 640 1224 l 616 1230 l 598 1230 l 575 1230 l 471 1230 l 459 1207 m 134 1219 q 122 1213 128 1211 q 18 1201 60 1218 l 18 1161 l 41 1062 q 59 969 59 1008 l 70 923 l 82 911 q 88 853 88 878 q 111 771 107 807 q 140 661 124 705 l 140 626 l 151 609 l 151 574 q 157 557 157 565 l 181 487 l 186 435 q 192 406 192 419 l 204 383 l 215 318 q 221 284 221 300 q 233 214 236 252 q 274 34 279 122 q 290 0 286 16 q 413 0 358 -10 l 419 11 q 442 145 440 89 q 465 238 465 189 l 453 278 l 442 318 q 430 365 433 341 q 413 435 414 407 l 401 481 l 395 499 l 378 580 l 378 603 q 349 691 354 647 l 349 708 q 331 795 331 754 l 320 818 l 320 836 q 308 864 309 849 l 302 882 q 297 900 297 891 l 290 940 q 279 1004 276 973 l 267 1022 l 267 1039 l 267 1056 l 262 1074 q 227 1207 234 1154 l 134 1219 "},"û":{"x_min":0,"x_max":0,"ha":232},"Ò":{"x_min":0,"x_max":0,"ha":472},"&":{"x_min":0,"x_max":0,"ha":330},"˝":{"x_min":0,"x_max":0,"ha":317},"Ð":{"x_min":0,"x_max":0,"ha":450},"I":{"x_min":21.03125,"x_max":246.1875,"ha":372,"o":"m 101 1230 q 44 1224 71 1218 l 21 1207 l 21 1150 l 27 1115 l 21 1098 l 27 1069 q 27 890 19 959 l 27 792 l 27 769 l 27 596 l 32 584 q 27 510 23 541 l 32 475 l 27 446 l 32 411 l 27 382 l 32 365 l 32 36 l 38 2 q 130 -9 91 6 q 246 8 198 8 l 246 54 l 246 71 l 246 186 l 246 209 l 246 307 l 246 324 l 246 394 l 246 411 l 246 429 l 246 503 l 246 521 l 246 538 l 246 556 l 246 596 l 246 619 l 246 722 l 246 803 l 246 832 l 246 890 l 246 908 l 246 1005 l 246 1034 l 246 1051 l 246 1069 l 240 1081 q 246 1127 240 1109 l 234 1219 q 113 1224 168 1239 l 101 1230 "},"ˉ":{"x_min":0,"x_max":0,"ha":244},"G":{"x_min":65.78125,"x_max":727.0625,"ha":806,"o":"m 280 1237 q 83 1046 149 1162 l 83 1017 l 71 988 q 65 918 84 949 q 77 884 75 900 l 77 855 q 77 820 71 834 q 83 773 75 792 q 83 680 73 720 l 71 669 q 83 657 82 663 q 83 524 71 581 q 361 -8 19 57 q 384 31 370 14 l 384 49 q 373 200 363 130 q 309 252 339 235 l 309 286 l 303 322 l 303 350 l 303 385 l 303 414 l 297 443 l 297 466 l 297 484 l 297 600 q 303 698 295 661 q 292 773 293 744 l 292 796 l 292 901 q 286 976 294 946 q 309 1028 301 1004 q 367 1098 360 1051 l 367 1116 l 367 1133 q 361 1144 360 1139 l 361 1191 l 356 1231 l 280 1237 m 483 1237 q 465 1231 474 1230 l 460 1220 l 460 1174 q 460 1051 453 1100 q 518 1000 497 1027 q 524 843 512 908 l 564 837 l 611 849 q 704 884 653 879 q 692 1000 706 950 q 483 1237 660 1193 m 599 605 q 500 600 546 593 l 448 594 l 448 420 l 460 385 l 518 385 q 460 211 545 249 l 448 170 l 448 20 q 616 43 491 -28 q 720 -8 654 -29 l 720 67 l 720 90 l 720 165 l 720 188 l 720 211 l 720 229 q 727 309 718 276 q 720 408 715 367 l 715 425 l 720 438 l 715 455 l 720 466 l 720 484 l 715 495 q 704 600 716 556 q 599 605 639 598 "},"`":{"x_min":0,"x_max":0,"ha":242},"·":{"x_min":0,"x_max":0,"ha":140},"r":{"x_min":0,"x_max":658.5625,"ha":789,"o":"m 158 1237 q 52 1231 99 1226 q 0 1214 27 1216 l 0 1197 q 6 1068 8 1117 l 11 991 l 6 968 l 6 904 q 11 775 16 823 l 11 733 q 17 587 10 644 l 17 558 l 11 540 l 17 522 q 17 429 12 467 l 11 400 q 11 318 16 353 l 11 288 l 17 271 l 17 -4 l 40 -4 l 64 -4 l 82 -4 l 105 -4 l 210 -4 l 228 36 l 228 153 l 222 282 l 216 324 q 222 453 227 401 l 222 493 q 228 675 218 606 l 222 693 l 222 739 q 222 833 227 794 l 222 874 l 222 897 l 216 921 l 216 962 l 222 991 l 216 1009 l 216 1026 l 216 1050 l 216 1073 l 216 1091 l 216 1115 l 222 1126 q 216 1220 212 1180 q 158 1237 181 1233 m 392 1231 q 322 1161 320 1224 q 333 1050 351 1106 q 409 728 489 975 q 333 669 351 712 l 333 651 q 339 535 343 583 l 351 499 q 427 464 399 499 l 427 446 q 433 370 437 406 l 433 142 q 438 -4 427 54 l 468 -4 l 485 2 l 497 -4 l 515 -4 l 538 2 q 644 2 602 -5 l 649 19 l 649 36 l 649 60 l 649 78 l 649 195 l 649 229 l 649 253 l 649 282 l 649 300 l 649 347 l 649 464 q 638 511 640 486 l 620 552 l 609 558 q 538 604 573 593 l 538 628 q 644 962 699 751 q 392 1231 640 1212 "},"¿":{"x_min":0,"x_max":0,"ha":385},"ý":{"x_min":0,"x_max":0,"ha":267},"x":{"x_min":18.3125,"x_max":720.953125,"ha":847,"o":"m 676 1228 l 497 1235 q 465 1167 481 1193 q 415 1054 451 1099 l 414 1037 l 425 1019 l 440 961 q 455 908 455 933 q 470 861 467 880 q 516 744 509 800 l 534 737 l 552 765 l 559 788 l 566 811 l 573 833 l 585 856 l 624 952 l 631 975 l 637 992 l 644 1003 q 720 1180 683 1116 q 694 1239 720 1220 l 676 1228 m 232 1235 q 174 1226 198 1225 q 52 1220 104 1242 l 50 1186 q 82 1115 78 1151 q 103 1068 99 1089 l 108 1050 q 145 956 133 995 l 160 915 l 170 874 l 186 838 l 196 792 q 221 727 212 758 l 231 687 l 236 663 l 247 651 l 288 522 l 298 493 l 308 463 l 313 440 l 323 417 l 339 381 l 364 305 l 369 276 q 405 170 402 224 q 416 158 415 164 l 415 141 l 426 123 q 473 6 446 52 l 502 4 l 519 4 l 560 2 l 583 1 l 623 0 q 687 -3 656 2 l 693 19 l 688 37 q 653 148 655 97 q 621 225 623 184 l 605 254 q 579 324 591 299 l 580 347 q 543 430 549 388 l 527 459 l 528 477 q 497 559 500 522 l 486 589 l 476 618 q 472 636 471 627 l 466 647 l 461 665 q 446 723 450 699 q 415 805 424 772 l 411 841 q 387 940 385 892 q 375 952 375 943 q 340 1063 342 1014 q 294 1193 298 1127 q 232 1235 262 1227 m 187 474 q 174 440 175 458 q 147 355 153 392 l 135 338 l 128 309 l 122 293 l 109 276 l 102 241 l 90 219 l 83 208 q 19 71 53 121 l 18 25 l 51 6 l 150 14 q 236 10 196 4 q 269 107 263 59 q 267 315 335 221 l 258 373 q 223 491 232 442 l 200 497 l 187 474 "},"è":{"x_min":0,"x_max":0,"ha":330},"º":{"x_min":0,"x_max":0,"ha":273},"Ø":{"x_min":0,"x_max":0,"ha":472},"∞":{"x_min":0,"x_max":0,"ha":454},"μ":{"x_min":0,"x_max":0,"ha":285},"÷":{"x_min":0,"x_max":0,"ha":431},"h":{"x_min":30.34375,"x_max":700.609375,"ha":819,"o":"m 154 1244 q 32 1215 82 1241 l 32 646 l 32 628 l 32 564 q 38 431 28 486 q 38 326 27 368 l 32 309 l 38 240 q 44 7 19 101 l 96 -4 q 113 2 105 2 q 149 2 132 4 q 247 -4 204 8 l 265 7 l 265 25 l 270 42 q 270 187 263 130 q 265 268 260 233 l 265 286 l 265 315 l 265 333 l 265 356 l 265 373 l 265 489 q 317 524 308 486 l 317 571 l 317 588 l 317 663 q 299 698 304 680 q 265 704 282 697 l 270 745 q 265 826 274 791 q 265 849 266 841 l 270 866 q 270 942 260 908 q 265 1041 259 999 l 265 1058 l 265 1076 l 265 1099 l 265 1117 l 259 1233 q 154 1244 195 1244 m 480 1233 q 456 1174 462 1199 q 456 1047 467 1104 l 456 988 l 462 977 l 462 959 l 456 866 q 456 820 463 839 q 467 704 475 755 q 415 675 427 698 l 415 594 q 415 518 421 550 q 462 501 436 499 q 462 390 467 436 l 467 118 q 474 7 465 54 l 491 7 l 514 7 l 613 7 l 630 7 l 700 7 l 700 25 l 700 42 l 700 118 l 700 141 l 700 240 l 700 257 l 700 326 l 700 344 q 694 437 693 398 l 700 472 l 694 507 l 694 541 l 700 576 l 700 594 l 694 605 l 700 628 l 694 640 l 700 733 l 694 756 l 700 797 q 694 913 690 864 l 700 931 l 694 977 l 700 1006 q 700 1233 686 1144 l 480 1233 "},".":{"x_min":32.5625,"x_max":239.1875,"ha":353,"o":"m 148 197 q 32 99 60 175 q 206 12 74 -61 q 160 197 290 110 l 148 197 l 160 197 l 148 197 "},";":{"x_min":0,"x_max":0,"ha":161},"f":{"x_min":17.015625,"x_max":634.625,"ha":763,"o":"m 25 1215 l 25 392 l 25 362 l 25 183 l 19 165 l 25 136 q 19 8 12 58 l 42 -2 l 60 3 q 199 -2 139 17 l 228 8 l 228 84 l 228 107 l 228 211 l 228 276 l 228 299 l 228 322 l 228 345 l 228 368 l 228 467 l 228 484 l 228 554 l 246 548 l 269 548 l 292 548 l 333 548 l 437 548 l 460 588 l 460 612 l 460 629 l 455 640 q 455 745 461 697 l 425 757 q 234 769 312 745 l 240 797 l 234 815 l 240 844 l 234 890 l 234 908 l 240 1012 q 286 1035 265 1031 l 309 1030 l 339 1035 q 402 1030 375 1028 l 432 1030 l 448 1030 l 472 1030 l 489 1035 l 501 1030 l 512 1035 q 605 1030 568 1026 q 628 1226 647 1131 l 594 1238 l 559 1233 l 530 1233 l 512 1233 l 501 1238 q 432 1238 457 1234 l 391 1233 l 309 1233 l 292 1233 q 246 1238 265 1238 l 182 1238 l 164 1244 l 48 1244 l 25 1215 "},"“":{"x_min":0,"x_max":0,"ha":232},"A":{"x_min":12.859375,"x_max":705.359375,"ha":834,"o":"m 292 1258 q 251 1235 276 1232 l 245 1199 l 257 1165 l 257 1129 l 269 1095 l 274 1054 q 286 1019 289 1037 q 297 973 291 988 l 303 944 l 309 903 l 321 874 l 326 862 q 339 775 326 808 l 344 746 l 350 722 q 367 659 355 682 q 373 600 367 625 q 379 524 382 556 q 385 513 386 519 l 391 501 q 414 408 401 446 l 367 391 q 339 251 370 310 l 344 210 q 356 199 354 205 q 449 193 410 204 q 490 7 459 78 l 518 7 l 536 2 q 583 7 558 9 l 600 7 l 705 2 l 705 42 l 682 135 l 676 147 l 670 240 l 653 263 l 653 286 l 641 333 q 635 345 634 339 l 635 362 q 617 455 621 416 q 594 554 600 513 l 588 594 q 571 699 570 651 q 542 810 539 758 q 531 891 527 857 q 524 908 524 900 q 513 921 520 918 l 513 949 l 507 973 l 501 1019 q 495 1037 495 1028 l 490 1060 l 490 1089 q 472 1211 472 1163 q 443 1240 453 1224 q 292 1258 355 1216 m 170 815 l 170 792 l 158 746 l 134 623 q 118 524 117 565 l 105 501 l 105 472 l 88 391 l 77 350 l 71 316 l 59 234 q 30 106 33 159 q 12 18 12 61 l 24 2 l 42 2 l 59 2 l 134 -4 q 228 13 187 14 l 233 36 l 240 48 q 251 153 238 111 l 251 176 l 257 187 l 263 240 l 263 257 l 269 275 l 269 321 q 286 408 289 367 l 280 432 l 280 449 q 274 467 274 458 l 263 583 l 257 606 l 257 630 l 251 641 l 251 664 q 240 740 236 706 q 228 833 227 792 l 187 845 l 170 815 "},"6":{"x_min":49.46875,"x_max":683.90625,"ha":800,"o":"m 298 1244 q 286 1233 292 1234 q 163 1162 211 1207 l 157 1144 l 151 1133 l 139 1127 l 134 1115 l 128 1103 l 92 1032 l 92 1015 l 81 968 l 81 950 l 63 862 l 63 786 q 57 563 38 657 q 327 0 32 37 l 333 17 l 333 35 l 333 52 q 333 199 339 142 q 245 316 257 240 q 327 552 212 499 l 333 563 l 339 616 q 322 757 348 697 q 251 757 276 723 l 251 775 l 251 792 q 257 939 261 883 q 327 1068 283 1020 l 327 1085 l 333 1098 l 333 1144 l 327 1238 l 298 1244 m 444 1238 q 421 1080 408 1157 q 545 910 518 1013 q 662 956 608 946 q 444 1238 719 1150 m 421 745 l 421 704 l 409 639 q 421 575 425 609 q 503 369 518 491 q 409 187 512 240 l 409 23 q 433 0 425 11 q 680 346 687 92 q 444 751 713 655 l 421 745 "},"‘":{"x_min":0,"x_max":0,"ha":161},"π":{"x_min":0,"x_max":0,"ha":541},"O":{"x_min":4.0625,"x_max":661.265625,"ha":781,"o":"m 246 1224 q 61 1102 128 1182 l 44 1062 l 38 1045 q 21 947 31 984 l 21 907 l 15 889 l 9 872 l 9 733 q 9 561 0 632 l 4 543 q 9 497 12 522 q 21 405 9 444 l 21 387 l 27 307 q 38 249 40 274 l 44 215 q 78 100 71 144 l 90 105 q 298 2 168 -12 l 303 18 q 303 117 296 77 q 303 174 301 150 l 292 209 q 234 255 250 225 q 229 347 227 310 q 223 423 231 391 l 229 463 l 223 492 l 223 520 l 223 618 l 217 693 q 217 774 221 742 l 217 792 l 223 815 q 217 832 217 823 l 217 947 l 229 964 l 234 987 q 280 1039 270 1006 q 246 1224 296 1215 m 367 1178 q 367 1056 378 1108 q 373 1016 373 1037 q 442 924 424 978 l 442 532 l 430 503 l 442 486 l 436 457 q 442 278 446 345 q 384 215 417 236 l 384 192 q 413 -9 370 75 q 609 134 543 31 l 621 192 l 632 226 q 649 330 632 287 l 649 347 l 649 382 l 649 400 l 649 423 l 649 440 q 655 607 662 543 l 661 630 l 655 653 l 655 676 l 655 699 q 649 779 644 746 l 649 803 l 644 826 q 632 924 629 881 l 626 941 l 621 953 l 609 1045 q 580 1097 585 1070 q 384 1212 491 1192 l 367 1178 "},"n":{"x_min":3.75,"x_max":633.453125,"ha":788,"o":"m 250 14 l 257 60 l 263 71 q 263 302 234 201 q 252 330 253 316 l 240 354 l 235 383 l 212 411 l 212 434 l 195 452 l 189 463 l 160 533 l 137 573 l 132 596 q 63 752 78 671 q 35 798 43 775 l 12 804 l 12 786 q 5 677 0 723 q 11 596 2 631 l 5 573 q 5 539 9 556 q 10 470 13 500 q 10 389 17 423 q 10 314 18 345 q 15 250 18 280 l 15 233 l 15 210 l 15 113 l 14 95 l 14 26 q 135 -2 69 -12 l 250 14 m 613 12 q 625 24 619 23 l 626 93 l 631 110 l 626 122 l 626 266 q 615 306 617 288 l 592 341 q 575 387 576 368 q 540 456 548 420 q 489 554 505 512 l 472 589 l 460 623 l 443 658 l 432 681 l 415 716 l 397 750 l 386 779 l 375 814 q 358 849 363 832 l 346 866 l 346 883 q 311 946 320 916 l 300 975 q 295 992 295 984 l 283 1010 q 260 1068 267 1043 q 255 1085 255 1077 q 248 1097 247 1091 q 191 1212 206 1167 l 174 1218 l 151 1218 l 111 1207 q 7 1207 50 1221 l 7 1167 q 7 1103 11 1132 l 18 1045 q 58 965 51 1004 l 64 953 l 75 942 q 109 884 92 908 l 109 867 q 155 780 147 824 l 172 751 l 190 722 l 207 693 l 207 676 q 252 590 240 634 q 259 578 260 584 q 270 543 267 561 q 310 469 303 509 l 327 451 l 339 428 l 339 411 q 379 330 370 369 l 390 313 l 396 295 q 436 209 425 250 l 447 198 l 453 174 q 510 42 497 101 q 613 12 562 4 m 633 577 l 628 652 l 622 727 l 622 750 l 622 801 l 622 819 q 617 865 615 839 q 617 923 619 898 l 617 1020 l 611 1038 q 607 1211 625 1140 q 595 1222 596 1216 l 577 1222 q 445 1217 498 1212 l 411 1211 q 411 1154 407 1178 q 404 1056 400 1096 l 404 1009 q 410 969 410 990 l 427 952 l 432 929 l 450 912 l 455 883 l 461 859 q 472 843 470 853 l 484 825 q 507 767 499 792 l 518 756 l 524 739 l 535 727 l 558 669 l 581 617 l 581 566 l 627 548 l 633 577 "},"3":{"x_min":25.921875,"x_max":675.078125,"ha":792,"o":"m 265 1237 q 26 964 58 1162 l 44 959 q 107 912 78 928 q 212 877 160 877 q 322 1022 237 986 q 334 1098 322 1066 q 334 1214 318 1163 q 265 1237 299 1240 m 392 1208 q 387 1068 402 1129 q 398 1016 397 1040 q 462 946 449 993 l 462 912 q 462 824 461 861 q 328 737 415 740 l 317 604 q 328 534 320 561 q 439 243 524 512 q 381 191 401 220 l 381 75 q 381 5 379 32 q 648 522 763 42 q 625 563 626 543 q 567 633 584 596 q 648 714 609 687 q 415 1237 752 1108 l 392 1208 m 160 365 l 142 365 q 61 336 97 339 l 26 313 q 200 16 16 107 l 293 -12 q 317 51 309 21 q 317 179 303 120 l 317 191 q 206 371 225 269 l 171 377 l 160 365 "},"9":{"x_min":40.34375,"x_max":655.546875,"ha":759,"o":"m 259 1244 q 219 1233 239 1234 q 167 1203 196 1209 q 161 1180 166 1189 q 103 1134 128 1148 q 45 787 22 956 q 306 486 63 523 q 311 665 328 588 q 225 775 246 707 l 225 874 l 225 891 l 225 961 q 306 1059 262 1022 l 306 1082 l 311 1093 q 306 1140 303 1115 l 306 1157 l 306 1233 l 259 1244 m 375 1221 q 369 1169 388 1195 q 369 1064 385 1110 q 387 1030 388 1051 q 468 845 490 965 q 387 694 476 735 q 381 619 381 651 q 381 550 391 579 l 387 514 q 398 491 397 504 q 462 509 430 506 q 375 167 497 279 l 387 150 q 369 46 385 86 l 387 5 q 583 126 510 42 q 630 231 605 193 q 642 306 630 273 l 642 335 l 642 358 l 647 381 l 647 399 l 647 427 q 653 607 659 539 l 653 653 l 653 671 l 653 688 l 653 706 l 653 775 l 647 810 l 647 827 l 642 845 l 642 914 l 630 925 l 624 995 q 613 1041 615 1017 q 590 1100 594 1073 q 393 1238 504 1209 l 375 1221 m 155 324 q 45 254 99 274 l 45 208 q 236 28 113 71 q 318 167 346 -25 l 294 179 q 184 324 219 244 l 155 324 "},"l":{"x_min":19.671875,"x_max":636.5625,"ha":755,"o":"m 128 1222 q 117 1216 123 1215 l 71 1216 l 31 1211 l 19 1182 l 25 544 l 19 504 q 19 406 25 448 q 19 309 21 346 l 19 21 l 36 10 l 59 4 l 82 4 l 105 -1 l 128 -1 l 203 -1 l 221 -1 l 249 -1 l 272 -1 l 289 -1 l 318 -1 l 347 -1 l 364 -1 l 433 -1 l 451 -1 q 583 -6 528 3 q 634 10 614 0 l 634 27 q 628 188 640 126 l 606 200 q 462 200 524 183 q 381 205 416 191 q 255 217 309 188 l 255 257 l 255 292 l 255 332 l 255 366 l 261 406 l 255 441 l 255 458 l 255 481 l 255 527 l 255 544 l 255 562 q 261 659 252 622 l 249 699 l 249 739 l 255 774 l 255 792 l 255 809 q 249 889 246 853 l 255 906 q 255 964 249 940 l 249 987 q 238 1216 262 1123 q 128 1222 173 1228 "},"¤":{"x_min":0,"x_max":0,"ha":285},"":{"x_min":0,"x_max":0,"ha":356},"∂":{"x_min":0,"x_max":0,"ha":328},"4":{"x_min":34.921875,"x_max":713.5625,"ha":838,"o":"m 488 1230 q 476 1224 482 1224 q 430 1167 467 1178 l 424 1144 l 424 1115 l 419 1098 q 419 1045 426 1070 q 430 930 438 983 l 430 889 l 436 872 l 430 855 q 436 774 439 808 l 436 635 q 436 531 435 571 l 430 508 l 430 132 q 442 6 426 58 l 453 0 l 476 0 l 493 0 l 516 0 l 621 0 l 632 17 l 632 40 l 632 63 l 632 86 l 632 185 l 632 202 l 632 271 q 701 283 672 282 q 713 381 699 337 q 632 462 716 477 l 632 502 l 632 520 l 632 543 l 632 560 l 632 589 l 632 607 l 632 630 l 632 647 l 632 763 l 632 786 l 632 809 l 632 826 l 632 930 l 632 1005 l 632 1028 l 632 1127 l 632 1144 l 632 1213 q 621 1224 622 1219 l 603 1224 l 488 1230 m 314 947 l 309 912 l 291 895 l 280 866 l 257 843 l 245 814 l 227 786 l 216 756 q 170 676 183 712 l 153 653 q 118 600 140 619 q 37 456 74 507 l 37 410 q 37 283 32 333 q 48 271 47 277 l 106 271 l 124 271 l 141 271 l 158 271 l 199 271 q 326 271 276 280 l 349 283 l 349 306 l 355 323 l 349 451 l 320 467 q 239 474 275 461 l 257 491 l 263 502 l 274 520 l 286 525 q 349 623 319 587 l 349 647 q 360 681 350 668 l 349 699 l 349 733 l 355 751 l 355 779 l 355 797 l 355 820 l 355 838 l 360 953 l 332 971 l 314 947 "},"p":{"x_min":7,"x_max":625.171875,"ha":744,"o":"m 337 1214 q 337 1197 340 1205 l 343 1115 q 337 1039 335 1072 q 413 992 388 1036 l 413 928 q 419 823 421 865 q 337 729 404 752 l 337 671 q 343 542 335 593 q 623 857 642 548 q 360 1237 642 1192 l 337 1214 m 22 1231 q 10 1074 0 1140 l 10 688 q 16 571 8 619 l 10 507 l 16 472 l 16 448 l 16 221 q 22 0 13 82 q 226 10 146 -8 l 232 52 l 232 99 l 232 145 l 232 191 l 232 209 l 232 326 l 232 349 l 232 455 l 226 495 l 226 531 l 226 571 l 221 583 l 221 600 l 221 624 l 221 729 l 221 752 l 221 781 l 221 881 l 215 898 l 221 910 q 208 1045 221 990 q 208 1220 229 1141 l 191 1231 l 168 1231 l 150 1231 l 127 1231 l 22 1231 "},"‡":{"x_min":0,"x_max":0,"ha":228},"à":{"x_min":0,"x_max":0,"ha":250},"Ü":{"x_min":0,"x_max":0,"ha":448},"ó":{"x_min":0,"x_max":0,"ha":248},"√":{"x_min":0,"x_max":0,"ha":555}}}
